<svg width="78" height="80" viewBox="0 0 78 80" fill="none" xmlns="http://www.w3.org/2000/svg">
    <path d="M12.46 3.27881V7.86897L23.6075 19.0165V24.9181" stroke="#D7FFF8" stroke-width="2"/>
    <path d="M28.8531 24.918V15.0819L24.2629 10.4917V5.24585M34.099 7.8688V24.918M39.3449 24.918V9.18027L43.2793 5.24585M44.5908 14.4262V24.918M48.5252 24.918V15.7376L54.4268 9.83601V5.90159M53.7711 24.918V18.3606L60.9842 11.1475H63.6071M55.0826 26.2294H60.3285L72.1317 14.4262M55.0826 30.8196H61.6399M55.0826 35.4098H68.1973L74.0989 29.5081M55.0826 40.6557H70.8202M55.0826 45.9016H65.5743L72.1317 52.4589M55.0826 50.4917H60.3285L70.8202 60.9835H73.4432M55.0826 55.0819H59.017L72.7875 68.8524V72.1311M53.1153 56.3934V62.295L59.017 68.1966V73.4425M48.5252 57.7048V66.8852M43.2793 57.7048V61.6393M38.6891 57.0491V68.8524L45.9022 76.0655M34.099 56.3934V74.754M28.8531 56.3934V66.8852L22.2957 73.4425M23.6072 56.3934V60.3278L11.8039 72.1311V74.754M22.2957 55.0819H17.7055L7.21372 65.5737H4.59077M22.2957 49.836H14.4268L10.4924 53.7704H6.55798M22.2957 45.2458H6.55798L3.2793 41.9671M22.2957 40.6557H15.7383M22.2957 35.4098H11.8039L8.5252 32.1311M22.2957 30.1639H16.394L9.18093 22.9508H4.59077M22.2957 26.2294H19.6727L7.86946 14.4262" stroke="#D7FFF8" stroke-width="2"/>
    <rect x="23.8555" y="26.418" width="29.725" height="29.725" rx="3.5" fill="#D7FFF8" stroke="#D7FFF8" stroke-width="3"/>
    <rect x="9.17969" width="5.2459" height="5.2459" rx="2.62295" fill="#D7FFF8"/>
    <rect x="20.9834" y="1.31128" width="5.2459" height="5.2459" rx="2.62295" fill="#D7FFF8"/>
    <rect x="30.1631" y="2.62305" width="5.2459" height="5.2459" rx="2.62295" fill="#D7FFF8"/>
    <rect x="41.9678" width="5.2459" height="5.2459" rx="2.62295" fill="#D7FFF8"/>
    <rect x="41.9678" y="10.4917" width="5.2459" height="5.2459" rx="2.62295" fill="#D7FFF8"/>
    <rect x="52.46" y="1.31128" width="5.2459" height="5.2459" rx="2.62295" fill="#D7FFF8"/>
    <rect x="62.9502" y="7.8689" width="5.2459" height="5.2459" rx="2.62295" fill="#D7FFF8"/>
    <rect x="70.8203" y="10.4917" width="5.2459" height="5.2459" rx="2.62295" fill="#D7FFF8"/>
    <rect x="60.3281" y="27.5408" width="5.2459" height="5.2459" rx="2.62295" fill="#D7FFF8"/>
    <rect x="72.1309" y="26.2295" width="5.2459" height="5.2459" rx="2.62295" fill="#D7FFF8"/>
    <rect x="69.5078" y="38.0327" width="5.2459" height="5.2459" rx="2.62295" fill="#D7FFF8"/>
    <rect x="69.5078" y="49.8362" width="5.2459" height="5.2459" rx="2.62295" fill="#D7FFF8"/>
    <rect x="72.1309" y="59.0164" width="5.2459" height="5.2459" rx="2.62295" fill="#D7FFF8"/>
    <rect x="70.8203" y="70.8196" width="5.2459" height="5.2459" rx="2.62295" fill="#D7FFF8"/>
    <rect x="56.3926" y="70.8196" width="5.2459" height="5.2459" rx="2.62295" fill="#D7FFF8"/>
    <rect x="45.9023" y="65.5737" width="5.2459" height="5.2459" rx="2.62295" fill="#D7FFF8"/>
    <rect x="31.4756" y="73.4426" width="5.2459" height="5.2459" rx="2.62295" fill="#D7FFF8"/>
    <rect x="18.3604" y="72.1311" width="5.2459" height="5.2459" rx="2.62295" fill="#D7FFF8"/>
    <rect x="9.17969" y="73.4426" width="5.2459" height="5.2459" rx="2.62295" fill="#D7FFF8"/>
    <rect x="1.31055" y="62.9507" width="5.2459" height="5.2459" rx="2.62295" fill="#D7FFF8"/>
    <rect x="2.62305" y="51.1475" width="5.2459" height="5.2459" rx="2.62295" fill="#D7FFF8"/>
    <rect y="38.0327" width="5.2459" height="5.2459" rx="2.62295" fill="#D7FFF8"/>
    <rect x="11.8027" y="38.0327" width="5.2459" height="5.2459" rx="2.62295" fill="#D7FFF8"/>
    <rect x="5.24512" y="28.8525" width="5.2459" height="5.2459" rx="2.62295" fill="#D7FFF8"/>
    <rect y="20.9836" width="5.2459" height="5.2459" rx="2.62295" fill="#D7FFF8"/>
    <rect x="3.93457" y="10.4917" width="5.2459" height="5.2459" rx="2.62295" fill="#D7FFF8"/>
    <rect x="40.6553" y="59.0164" width="5.2459" height="5.2459" rx="2.62295" fill="#D7FFF8"/>
    <rect x="44.5898" y="74.7539" width="5.2459" height="5.2459" rx="2.62295" fill="#D7FFF8"/>
    <path d="M43.843 48.75H40.843L40.003 46.23H34.423L33.583 48.75H30.603L35.503 34.75H38.923L43.843 48.75ZM37.223 37.93L35.303 43.65H39.143L37.223 37.93Z" fill="#5C5B9F"/>
</svg>
