<svg width="77" height="75" viewBox="0 0 77 75" fill="none" xmlns="http://www.w3.org/2000/svg">
    <path d="M1.30474 7.71544L0.80631 7.71512C0.770321 8.16393 0.75 8.61368 0.75 9.06421C0.75 15.7123 4.57789 21.7064 10.7161 26.0283C16.8551 30.3508 25.3227 33.0166 34.6638 33.0166C44.0049 33.0166 52.472 30.3508 58.6104 26.0283C64.748 21.7064 68.5754 15.7122 68.5754 9.06421C68.5754 8.61372 68.555 8.16431 68.5214 7.71637L68.0229 7.7154C67.5376 13.852 63.682 19.3808 57.6914 23.3834C51.702 27.3853 43.5959 29.8473 34.6638 29.8473C25.7306 29.8473 17.6239 27.3853 11.6345 23.3834C5.64391 19.3808 1.78891 13.852 1.30474 7.71544Z" fill="white" stroke="white" stroke-width="0.5"/>
    <path d="M21.0542 28.2872L21.1686 28.3224L21.2678 28.2554C25.2215 25.584 29.8872 24.1561 34.6624 24.1561C39.4377 24.1561 44.1033 25.584 48.057 28.2554L48.1564 28.3226L48.271 28.287C49.0618 28.0419 49.837 27.7759 50.5968 27.4891L51.019 27.3297L50.6599 27.0563C46.0641 23.5576 40.4433 21.6625 34.6624 21.6625C28.8816 21.6625 23.2608 23.5576 18.665 27.0563L18.3066 27.3291L18.7277 27.489C19.4877 27.7774 20.2632 28.0434 21.0542 28.2872Z" fill="white" stroke="white" stroke-width="0.5"/>
    <path d="M67.1094 1.86402L66.666 1.17992L66.6497 1.995L66.5655 6.20344L62.3507 6.41547L61.5328 6.45662L62.2343 6.87929L65.8467 9.0559L63.9239 12.8022L63.5507 13.5292L64.2668 13.1354L67.9621 11.1032L70.2559 14.6385L70.6997 15.3225L70.7156 14.5073L70.7976 10.299L75.0123 10.087L75.8298 10.0458L75.1288 9.62318L71.5185 7.44659L73.4413 3.70022L73.8143 2.97354L73.0985 3.36698L69.401 5.39928L67.1094 1.86402Z" fill="white" stroke="white" stroke-width="0.5"/>
    <path d="M17.1478 72.8033L17.1481 72.8033C18.9382 72.7991 20.6538 72.0873 21.9192 70.8236C23.1845 69.56 23.8965 67.8474 23.8989 66.061V66.0607C23.8989 64.7267 23.5023 63.4227 22.7593 62.3137C22.0164 61.2047 20.9605 60.3406 19.7253 59.8305C18.4901 59.3205 17.131 59.1874 15.82 59.448C14.509 59.7087 13.3049 60.3515 12.36 61.2951C11.4151 62.2387 10.7719 63.4408 10.5118 64.7494C10.2518 66.0579 10.3867 67.4139 10.8993 68.6459C11.4119 69.878 12.2793 70.9305 13.3916 71.6705C14.5038 72.4105 15.811 72.8047 17.1478 72.8033ZM14.4086 61.9723C15.2195 61.4331 16.1725 61.1459 17.147 61.1471C18.452 61.1505 19.7024 61.6696 20.6244 62.5906C21.5465 63.5117 22.065 64.7595 22.0667 66.061C22.0666 67.0328 21.7776 67.9829 21.2362 68.7909C20.6948 69.5991 19.9251 70.2289 19.0246 70.6007C18.1241 70.9725 17.1332 71.0695 16.1774 70.8793C15.2217 70.6892 14.3439 70.2205 13.6554 69.5326C12.9668 68.8448 12.4982 67.9687 12.3089 67.0153C12.1196 66.0618 12.218 65.0738 12.5918 64.1761C12.9655 63.2785 13.5977 62.5115 14.4086 61.9723Z" fill="white" stroke="white" stroke-width="0.5"/>
    <path d="M14.4006 61.2011L14.6307 61.0712L14.4883 60.8486C11.6437 56.4037 10.3577 51.1429 10.8317 45.8907C11.3057 40.6384 13.5129 35.6914 17.1076 31.8247L17.3474 31.5668L17.0248 31.4255C16.3848 31.1452 15.7597 30.8517 15.1494 30.545L14.9775 30.4587L14.85 30.6027C11.0287 34.9163 8.73083 40.3614 8.3089 46.103C7.88696 51.8446 9.36422 57.5658 12.5141 62.3894L12.6952 62.6666L12.9122 62.4166C13.335 61.9295 13.8385 61.5184 14.4006 61.2011Z" fill="white" stroke="white" stroke-width="0.5"/>
    <path d="M54.4769 30.6004L54.3485 30.4555L54.1761 30.5436C53.5683 30.8541 52.9441 31.1471 52.3037 31.4227L51.9777 31.5629L52.2195 31.8226C56.1355 36.0298 58.3994 41.5046 58.5958 47.2424C58.7922 52.9803 56.908 58.5964 53.2888 63.0602C49.6696 67.5241 44.5581 70.5364 38.8922 71.5441C33.2263 72.5518 27.3862 71.4873 22.4436 68.546L22.2171 68.4113L22.0945 68.6446C21.7938 69.2166 21.3961 69.7324 20.9191 70.1692L20.6733 70.3943L20.9581 70.5673C26.3579 73.8464 32.7574 75.0847 38.9943 74.0573C45.2312 73.03 50.8921 69.8051 54.9488 64.9683C59.0055 60.1314 61.1889 54.0033 61.1023 47.697C61.0157 41.3907 58.6649 35.3246 54.4769 30.6004Z" fill="white" stroke="white" stroke-width="0.5"/>
</svg>
