<svg width="342" height="342" viewBox="9 20 320 300" fill="none" xmlns="http://www.w3.org/2000/svg">
    <g filter="url(#filter0_ddii_1386_38138)">
        <rect x="12" y="12" width="315" height="315" rx="10" fill="url(#paint0_radial_1386_38138)"/>
    </g>
    <g opacity="0.5">
        <path d="M276.871 271.385C272.152 271.385 268.297 268.784 268.038 265.507C268.029 265.624 268.023 265.74 268.023 265.857C268.023 269.297 271.985 272.086 276.871 272.086C281.757 272.086 285.718 269.297 285.718 265.857C285.718 265.74 285.713 265.624 285.704 265.507C285.445 268.784 281.589 271.385 276.871 271.385Z" fill="#261C5C"/>
        <path d="M273.313 270.846C274.363 270.137 275.602 269.757 276.87 269.757C278.138 269.757 279.377 270.137 280.427 270.846C280.634 270.782 280.836 270.712 281.034 270.638C279.838 269.727 278.375 269.233 276.87 269.233C275.365 269.233 273.902 269.727 272.705 270.638C272.903 270.713 273.106 270.782 273.313 270.846Z" fill="#261C5C"/>
        <path d="M285.345 264L285.98 264.98L287.005 264.417L286.472 265.456L287.473 266.06L286.305 266.119L286.282 267.286L285.646 266.305L284.621 266.869L285.154 265.83L284.152 265.226L285.321 265.167L285.345 264Z" fill="#261C5C"/>
        <path d="M272.269 282.543C271.93 282.543 271.6 282.444 271.318 282.256C271.037 282.069 270.817 281.803 270.687 281.491C270.558 281.179 270.523 280.836 270.589 280.505C270.655 280.174 270.818 279.869 271.057 279.631C271.296 279.392 271.601 279.229 271.933 279.163C272.265 279.097 272.609 279.131 272.921 279.26C273.234 279.389 273.501 279.608 273.689 279.888C273.877 280.169 273.978 280.499 273.978 280.837C273.977 281.289 273.797 281.722 273.477 282.042C273.156 282.362 272.722 282.542 272.269 282.543ZM272.269 279.48C272 279.479 271.737 279.559 271.513 279.707C271.289 279.856 271.114 280.068 271.011 280.316C270.908 280.564 270.88 280.837 270.933 281.1C270.985 281.364 271.114 281.606 271.305 281.796C271.495 281.986 271.737 282.115 272.001 282.168C272.265 282.22 272.539 282.193 272.787 282.091C273.036 281.988 273.248 281.814 273.398 281.591C273.548 281.368 273.627 281.105 273.627 280.837C273.627 280.477 273.484 280.133 273.229 279.878C272.974 279.624 272.629 279.48 272.269 279.48Z" fill="#261C5C"/>
        <path d="M271.514 279.502C270.758 278.322 270.417 276.925 270.543 275.53C270.669 274.135 271.255 272.821 272.209 271.794C272.04 271.72 271.875 271.642 271.713 271.561C270.719 272.684 270.12 274.101 270.011 275.596C269.901 277.091 270.285 278.58 271.105 279.836C271.221 279.702 271.36 279.589 271.514 279.502Z" fill="#261C5C"/>
        <path d="M282.029 271.56C281.868 271.643 281.703 271.72 281.533 271.793C282.573 272.911 283.174 274.365 283.226 275.888C283.278 277.412 282.778 278.904 281.817 280.089C280.856 281.275 279.498 282.075 277.994 282.342C276.489 282.61 274.938 282.327 273.625 281.546C273.543 281.703 273.434 281.845 273.303 281.965C274.708 282.819 276.375 283.141 277.998 282.873C279.622 282.606 281.096 281.766 282.152 280.507C283.208 279.248 283.776 277.653 283.754 276.011C283.731 274.369 283.119 272.79 282.029 271.56Z" fill="#261C5C"/>
        <path d="M285.815 288.852L285.85 288.887C285.96 288.997 286.064 289.002 286.165 288.902C286.204 288.862 286.236 288.815 286.26 288.765L287.304 286.489L286.105 285.29L283.876 286.326C283.831 286.346 283.789 286.374 283.753 286.409C283.699 286.457 283.666 286.524 283.661 286.596C283.658 286.624 283.662 286.652 283.67 286.679C283.679 286.706 283.694 286.73 283.713 286.751L283.747 286.785L283.679 286.853L282.919 286.093L282.987 286.025L283.023 286.061C283.062 286.093 283.107 286.116 283.156 286.128C283.204 286.139 283.255 286.14 283.304 286.13C283.439 286.114 283.571 286.076 283.695 286.019L289.431 283.423L286.832 289.081C286.771 289.208 286.726 289.342 286.699 289.481C286.683 289.542 286.683 289.606 286.699 289.667C286.715 289.729 286.747 289.784 286.792 289.83L286.826 289.863L286.758 289.932L285.746 288.921L285.815 288.852ZM286.402 285.124L287.459 286.18L288.36 284.225L286.402 285.124Z" fill="#261C5C"/>
        <path d="M287.198 290.372L287.266 290.303C287.284 290.321 287.305 290.335 287.329 290.345C287.352 290.354 287.377 290.359 287.402 290.358C287.459 290.358 287.516 290.35 287.57 290.335C287.629 290.318 287.684 290.292 287.735 290.259C287.782 290.228 287.827 290.193 287.868 290.153L291.364 286.657C291.439 286.583 291.501 286.498 291.549 286.404C291.594 286.312 291.562 286.208 291.453 286.089L291.521 286.021L292.423 286.5L288.319 290.605C288.279 290.645 288.244 290.69 288.213 290.738C288.18 290.788 288.154 290.844 288.138 290.902C288.122 290.955 288.113 291.01 288.11 291.066C288.109 291.091 288.113 291.115 288.122 291.139C288.131 291.162 288.145 291.182 288.162 291.2L288.094 291.268L287.198 290.372Z" fill="#261C5C"/>
        <path d="M293.127 290.468C293.352 290.683 293.528 290.944 293.642 291.234C293.735 291.484 293.776 291.75 293.762 292.017C293.746 292.275 293.678 292.528 293.561 292.759C293.444 292.994 293.289 293.208 293.103 293.394C292.92 293.577 292.709 293.73 292.478 293.848C292.249 293.967 291.998 294.041 291.74 294.066C291.478 294.09 291.213 294.058 290.964 293.973C290.681 293.871 290.426 293.704 290.218 293.486C290.069 293.332 289.959 293.144 289.896 292.939C289.823 292.718 289.783 292.487 289.779 292.255L288.441 293.593C288.401 293.634 288.365 293.679 288.335 293.727C288.301 293.777 288.275 293.833 288.258 293.891C288.243 293.945 288.234 294 288.231 294.055C288.229 294.08 288.233 294.105 288.242 294.128C288.251 294.151 288.265 294.171 288.283 294.188L288.214 294.257L287.325 293.367L287.393 293.299C287.41 293.315 287.431 293.328 287.453 293.336C287.475 293.344 287.499 293.348 287.522 293.347C287.58 293.348 287.637 293.341 287.693 293.326C287.751 293.309 287.807 293.284 287.857 293.251C287.905 293.22 287.95 293.184 287.99 293.144L291.448 289.687C291.488 289.646 291.529 289.606 291.567 289.567C291.601 289.53 291.628 289.487 291.646 289.441C291.662 289.397 291.666 289.349 291.658 289.303C291.643 289.242 291.613 289.186 291.57 289.14L291.636 289.073L292.307 289.744L292.007 290.045C292.206 290.026 292.407 290.052 292.595 290.121C292.795 290.197 292.977 290.315 293.127 290.468ZM290.458 293.263C290.605 293.408 290.786 293.513 290.984 293.571C291.167 293.621 291.359 293.631 291.545 293.599C291.734 293.566 291.916 293.501 292.082 293.405C292.256 293.305 292.415 293.182 292.556 293.04C292.72 292.876 292.86 292.689 292.973 292.486C293.083 292.292 293.16 292.081 293.201 291.861C293.24 291.654 293.236 291.441 293.19 291.235C293.15 291.065 293.07 290.906 292.957 290.771C292.844 290.637 292.702 290.53 292.541 290.46C292.414 290.404 292.276 290.374 292.137 290.371C291.996 290.369 291.856 290.393 291.723 290.442C291.581 290.497 291.453 290.583 291.347 290.693L290.459 291.581C290.341 291.696 290.251 291.838 290.197 291.994C290.145 292.142 290.121 292.298 290.125 292.455C290.129 292.608 290.162 292.759 290.221 292.9C290.276 293.035 290.356 293.158 290.456 293.262L290.458 293.263Z" fill="#261C5C"/>
        <path d="M295.474 297.759C295.434 297.799 295.398 297.844 295.368 297.892C295.334 297.943 295.309 297.998 295.293 298.056C295.277 298.11 295.268 298.165 295.265 298.221C295.264 298.245 295.268 298.27 295.277 298.293C295.286 298.316 295.299 298.337 295.317 298.354L295.249 298.422L294.366 297.539L294.434 297.471C294.451 297.487 294.472 297.5 294.494 297.508C294.516 297.516 294.54 297.52 294.563 297.519C294.62 297.518 294.677 297.51 294.731 297.495C294.79 297.478 294.845 297.453 294.896 297.42C294.943 297.389 294.988 297.354 295.029 297.314L296.3 296.043C296.449 295.899 296.572 295.73 296.662 295.544C296.736 295.39 296.777 295.222 296.784 295.051C296.79 294.899 296.762 294.747 296.702 294.607C296.589 294.338 296.375 294.124 296.106 294.011C295.973 293.953 295.831 293.919 295.686 293.911C295.538 293.905 295.39 293.928 295.25 293.977C295.1 294.03 294.965 294.116 294.854 294.23L293.399 295.684C293.36 295.725 293.324 295.77 293.293 295.818C293.26 295.868 293.235 295.924 293.218 295.982C293.203 296.036 293.194 296.091 293.191 296.146C293.189 296.171 293.193 296.195 293.202 296.218C293.211 296.241 293.225 296.262 293.242 296.279L293.174 296.348L292.284 295.458L292.352 295.389C292.37 295.406 292.39 295.418 292.412 295.427C292.435 295.435 292.459 295.439 292.482 295.438C292.539 295.437 292.595 295.429 292.65 295.414C292.708 295.397 292.764 295.372 292.814 295.338C292.862 295.308 292.907 295.273 292.948 295.233L296.437 291.743C296.512 291.669 296.574 291.584 296.621 291.49C296.667 291.399 296.637 291.297 296.532 291.182L296.601 291.113L297.497 291.586L295.523 293.561C295.604 293.557 295.686 293.559 295.768 293.567C295.872 293.574 295.974 293.592 296.074 293.622C296.193 293.659 296.307 293.71 296.413 293.774C296.548 293.856 296.673 293.955 296.782 294.068C296.976 294.251 297.126 294.476 297.221 294.725C297.296 294.934 297.326 295.157 297.307 295.379C297.288 295.585 297.23 295.786 297.134 295.97C297.044 296.143 296.928 296.302 296.79 296.44L295.474 297.759Z" fill="#261C5C"/>
        <path d="M297.725 300.901L298.074 300.552L298.005 300.552C297.779 300.552 297.555 300.509 297.345 300.425C296.929 300.232 296.584 299.915 296.356 299.518C296.283 299.384 296.24 299.236 296.229 299.084C296.221 298.95 296.244 298.817 296.297 298.694C296.349 298.573 296.425 298.462 296.519 298.369C296.662 298.22 296.85 298.121 297.054 298.085C297.281 298.053 297.513 298.071 297.733 298.138C298.022 298.221 298.303 298.334 298.569 298.473C298.875 298.628 299.213 298.818 299.582 299.042C299.73 298.889 299.84 298.704 299.903 298.501C299.947 298.345 299.957 298.181 299.933 298.02C299.911 297.878 299.861 297.742 299.784 297.621C299.722 297.521 299.65 297.428 299.569 297.343C299.464 297.233 299.338 297.145 299.199 297.084C299.081 297.033 298.956 297.002 298.827 296.991C298.71 296.981 298.591 296.987 298.475 297.008C298.374 297.026 298.275 297.052 298.178 297.086L298.115 297.023L298.616 296.522C298.657 296.554 298.703 296.577 298.753 296.591C298.812 296.611 298.869 296.635 298.924 296.663C299.02 296.704 299.153 296.758 299.325 296.824C299.543 296.925 299.74 297.068 299.902 297.245C300.117 297.446 300.292 297.685 300.417 297.95C300.504 298.141 300.541 298.351 300.526 298.56C300.505 298.749 300.44 298.929 300.335 299.086C300.226 299.25 300.101 299.402 299.963 299.54L298.611 300.892C298.521 300.982 298.455 301.091 298.417 301.212C298.397 301.258 298.39 301.31 298.398 301.36C298.406 301.411 298.428 301.458 298.462 301.496L298.394 301.564L297.725 300.901ZM298.375 300.252L299.351 299.275L299.268 299.221C299.132 299.138 298.963 299.04 298.759 298.929C298.559 298.819 298.35 298.728 298.133 298.658C297.932 298.592 297.722 298.557 297.51 298.555C297.418 298.552 297.326 298.568 297.24 298.602C297.155 298.636 297.077 298.687 297.012 298.753C296.941 298.822 296.887 298.907 296.855 299C296.823 299.094 296.814 299.194 296.828 299.293C296.861 299.527 296.975 299.742 297.15 299.901C297.285 300.043 297.457 300.146 297.645 300.199C297.832 300.248 298.024 300.267 298.216 300.257L298.375 300.252Z" fill="#261C5C"/>
    </g>
    <rect x="169.5" y="12" width="222.739" height="222.739" transform="rotate(45 169.5 12)" stroke="#5C5B9F" stroke-opacity="0.2"/>
    <path d="M12.0234 12L265.023 265" stroke="#5C5B9F" stroke-opacity="0.2"/>
    <path d="M303.023 303L327.023 327" stroke="#5C5B9F" stroke-opacity="0.2"/>
    <path d="M327.023 12L12.0234 327" stroke="#5C5B9F" stroke-opacity="0.2"/>
    <defs>
        <filter id="filter0_ddii_1386_38138" x="0" y="0" width="342" height="342" filterUnits="userSpaceOnUse" color-interpolation-filters="sRGB">
            <feFlood flood-opacity="0" result="BackgroundImageFix"/>
            <feColorMatrix in="SourceAlpha" type="matrix" values="0 0 0 0 0 0 0 0 0 0 0 0 0 0 0 0 0 0 127 0" result="hardAlpha"/>
            <feColorMatrix type="matrix" values="0 0 0 0 0.682353 0 0 0 0 0.682353 0 0 0 0 0.752941 0 0 0 0.3 0"/>
            <feBlend mode="normal" in2="BackgroundImageFix" result="effect1_dropShadow_1386_38138"/>
            <feColorMatrix in="SourceAlpha" type="matrix" values="0 0 0 0 0 0 0 0 0 0 0 0 0 0 0 0 0 0 127 0" result="hardAlpha"/>
            <feColorMatrix type="matrix" values="0 0 0 0 1 0 0 0 0 1 0 0 0 0 1 0 0 0 1 0"/>
            <feBlend mode="normal" in2="effect1_dropShadow_1386_38138" result="effect2_dropShadow_1386_38138"/>
            <feBlend mode="normal" in="SourceGraphic" in2="effect2_dropShadow_1386_38138" result="shape"/>
            <feColorMatrix in="SourceAlpha" type="matrix" values="0 0 0 0 0 0 0 0 0 0 0 0 0 0 0 0 0 0 127 0" result="hardAlpha"/>
            <feComposite in2="hardAlpha" operator="arithmetic" k2="-1" k3="1"/>
            <feColorMatrix type="matrix" values="0 0 0 0 1 0 0 0 0 1 0 0 0 0 1 0 0 0 1 0"/>
            <feBlend mode="normal" in2="shape" result="effect3_innerShadow_1386_38138"/>
            <feColorMatrix in="SourceAlpha" type="matrix" values="0 0 0 0 0 0 0 0 0 0 0 0 0 0 0 0 0 0 127 0" result="hardAlpha"/>
            <feOffset dx="-2" dy="-2"/>
            <feComposite in2="hardAlpha" operator="arithmetic" k2="-1" k3="1"/>
            <feColorMatrix type="matrix" values="0 0 0 0 0 0 0 0 0 0 0 0 0 0 0 0 0 0 0.1 0"/>
            <feBlend mode="normal" in2="effect3_innerShadow_1386_38138" result="effect4_innerShadow_1386_38138"/>
        </filter>
        <radialGradient id="paint0_radial_1386_38138" cx="0" cy="0" r="1" gradientUnits="userSpaceOnUse" gradientTransform="translate(169.5 169.5) rotate(90) scale(157.5)">
            <stop offset="0.364583" stop-color="white"/>
            <stop offset="1" stop-color="#D6D7FD"/>
        </radialGradient>
    </defs>
</svg>
