<svg id="Слой_1" data-name="Слой 1" xmlns="http://www.w3.org/2000/svg" xmlns:xlink="http://www.w3.org/1999/xlink" viewBox="0 0 355 362"><defs><style>.cls-1{fill:url(#Безымянный_градиент);}.cls-2{opacity:0.5;}.cls-3{fill:#261c5c;}.cls-4{fill:none;stroke-width:0.5px;}.cls-4,.cls-5{stroke:#261c5c;}.cls-5{fill:#f3f3f5;}.cls-6,.cls-8,.cls-9{fill:#5c5b9f;}.cls-6{fill-opacity:0.2;}.cls-7{fill:#fff;}.cls-8{opacity:0.3;isolation:isolate;}.cls-9{fill-opacity:0.3;}</style><radialGradient id="Безымянный_градиент" cx="168.9" cy="187.92" r="1" gradientTransform="matrix(0, 181, 177.5, 0, -33178.41, -30390.19)" gradientUnits="userSpaceOnUse"><stop offset="0.36" stop-color="#fff"/><stop offset="1" stop-color="#d6d7fd"/></radialGradient></defs><title>Монтажная область 1</title><rect class="cls-1" width="355" height="362"/><g class="cls-2"><path class="cls-3" d="M163.22,173.31a8.18,8.18,0,0,0-9,7.3,8.26,8.26,0,0,0,7.16,9.19,8.17,8.17,0,0,0,9-7.3l0-.31a7.56,7.56,0,0,1-8.31,6.46,7.65,7.65,0,0,1-6.62-8.51,7.57,7.57,0,0,1,8.05-6.79Z"/><ellipse class="cls-4" cx="162.26" cy="181.24" rx="7.81" ry="7.96"/><path class="cls-5" d="M156.77,184.72h0a2.1,2.1,0,0,1,2.08,2.12h0a2.1,2.1,0,0,1-2.08,2.11h0a2.1,2.1,0,0,1-2.07-2.11h0A2.1,2.1,0,0,1,156.77,184.72Z"/></g><g class="cls-2"><path class="cls-3" d="M180.65,186.32h.06c.17,0,.26-.08.26-.25a.57.57,0,0,0,0-.18l-1-2.7H178l-.95,2.65a.47.47,0,0,0,0,.17.4.4,0,0,0,.08.23l.07.06.09,0h.06v.11h-1.21v-.11h0a.43.43,0,0,0,.16,0,.34.34,0,0,0,.12-.12,1.36,1.36,0,0,0,.22-.41l2.51-6.77,2.44,6.71a1.72,1.72,0,0,0,.21.43.31.31,0,0,0,.15.15.36.36,0,0,0,.2.06h0v.11h-1.61Zm-2.5-3.51h1.68l-.84-2.32Z"/><path class="cls-3" d="M183,186.43v-.11l.09,0,.07-.05a.83.83,0,0,0,.11-.15.68.68,0,0,0,.07-.2.62.62,0,0,0,0-.19V180a1.12,1.12,0,0,0,0-.36q-.06-.16-.33-.18v-.11L184,179v6.67a.63.63,0,0,0,0,.19.48.48,0,0,0,.07.2.53.53,0,0,0,.11.15.15.15,0,0,0,.06.05l.08,0v.11Z"/><path class="cls-3" d="M187.77,181.69a2.17,2.17,0,0,1,1.74.74,2.34,2.34,0,0,1,.43.77,3,3,0,0,1,.14.89,2.88,2.88,0,0,1-.14.87,2.43,2.43,0,0,1-.41.78,2.33,2.33,0,0,1-.69.56,2.26,2.26,0,0,1-1,.21,1.52,1.52,0,0,1-.69-.19,2.6,2.6,0,0,1-.64-.46V188a1.23,1.23,0,0,0,0,.19,1.18,1.18,0,0,0,.07.2.83.83,0,0,0,.11.15.12.12,0,0,0,.07,0,.11.11,0,0,0,.08,0v.11h-1.42v-.11l.08,0a.15.15,0,0,0,.06,0,.44.44,0,0,0,.12-.15.48.48,0,0,0,.07-.2.62.62,0,0,0,0-.19v-5.81a.47.47,0,0,0,0-.17.29.29,0,0,0-.1-.12.36.36,0,0,0-.2-.06v-.11h1.07v.49a1.46,1.46,0,0,1,.53-.42A1.66,1.66,0,0,1,187.77,181.69Zm.1,4.44a1.4,1.4,0,0,0,1.13-.61,1.86,1.86,0,0,0,.27-.59,2.72,2.72,0,0,0,.09-.69,2.94,2.94,0,0,0-.11-.78,2.45,2.45,0,0,0-.31-.7,1.87,1.87,0,0,0-.51-.5,1.23,1.23,0,0,0-.56-.18,1.3,1.3,0,0,0-.58.08,1.27,1.27,0,0,0-.39.26,1.19,1.19,0,0,0-.27.39,1.11,1.11,0,0,0-.1.51v1.44a1.16,1.16,0,0,0,.12.55,1.47,1.47,0,0,0,.31.44,1.39,1.39,0,0,0,.43.28,1.28,1.28,0,0,0,.47.1Z"/><path class="cls-3" d="M195.45,185.71a.62.62,0,0,0,0,.19.68.68,0,0,0,.07.2l.11.15a.18.18,0,0,0,.07.05l.08,0v.11h-1.41v-.11l.08,0,.06-.05a.83.83,0,0,0,.11-.15.7.7,0,0,0,.08-.2,1.23,1.23,0,0,0,0-.19v-2.07a2.09,2.09,0,0,0-.11-.7,1.71,1.71,0,0,0-.3-.5,1,1,0,0,0-.42-.29,1.21,1.21,0,0,0-.95,0,1.36,1.36,0,0,0-.41.26,1.22,1.22,0,0,0-.29.41,1.17,1.17,0,0,0-.12.52v2.37a1.23,1.23,0,0,0,0,.19,1.18,1.18,0,0,0,.07.2l.11.15a.18.18,0,0,0,.07.05l.08,0v.11h-1.42v-.11l.08,0a.15.15,0,0,0,.06-.05.57.57,0,0,0,.12-.15.68.68,0,0,0,.07-.2,1.23,1.23,0,0,0,0-.19V180a1.49,1.49,0,0,0,0-.36c0-.11-.15-.17-.32-.18v-.11l1.09-.34v3.21l.2-.2a1.37,1.37,0,0,1,.29-.2,1.32,1.32,0,0,1,.39-.15,1.88,1.88,0,0,1,.53-.07,2.15,2.15,0,0,1,.87.18,1.78,1.78,0,0,1,.59.46,2,2,0,0,1,.33.62,2.18,2.18,0,0,1,.1.67Z"/><path class="cls-3" d="M199.75,186.43v-.57l-.06.06a2,2,0,0,1-.63.43,2.44,2.44,0,0,1-1.51.07,1.2,1.2,0,0,1-.44-.25.86.86,0,0,1-.26-.37,1.12,1.12,0,0,1-.08-.45,1.05,1.05,0,0,1,.2-.66,1.67,1.67,0,0,1,.58-.51,5.48,5.48,0,0,1,.93-.41q.56-.18,1.26-.36a1.57,1.57,0,0,0-.17-.7,1.29,1.29,0,0,0-.36-.41,1.19,1.19,0,0,0-.44-.21,1.74,1.74,0,0,0-.39-.05,1.43,1.43,0,0,0-.5.09,1.28,1.28,0,0,0-.37.23,1.93,1.93,0,0,0-.27.3,1.78,1.78,0,0,0-.17.3H197v-.81a.52.52,0,0,0,.16-.06l.19-.08.45-.19a2,2,0,0,1,.8-.13,2.47,2.47,0,0,1,1,.16,1.35,1.35,0,0,1,.57.4,1.28,1.28,0,0,1,.27.59,3.71,3.71,0,0,1,.06.67v2.19a1,1,0,0,0,.1.42.32.32,0,0,0,.27.2v.11Zm0-1.05v-1.59l-.11,0c-.18,0-.39.1-.64.18a3.74,3.74,0,0,0-.72.29,2.39,2.39,0,0,0-.58.42.78.78,0,0,0-.17.26.77.77,0,0,0-.06.3.62.62,0,0,0,.07.33.67.67,0,0,0,.21.26,1.1,1.1,0,0,0,.74.24,1.26,1.26,0,0,0,.63-.16,2.28,2.28,0,0,0,.5-.42Z"/></g><rect class="cls-6" x="87.9" width="1.13" height="362"/><rect class="cls-6" x="176.94" width="1.13" height="90.79"/><rect class="cls-6" x="176.94" y="271.21" width="1.13" height="90.79"/><rect class="cls-6" x="265.97" width="1.13" height="362"/><rect class="cls-6" y="89.64" width="355" height="1.15"/><rect class="cls-6" y="180.43" width="89.03" height="1.15"/><rect class="cls-7" y="180.43" width="89.03" height="1.15"/><rect class="cls-6" x="265.97" y="180.43" width="89.03" height="1.15"/><rect class="cls-6" y="271.21" width="355" height="1.15"/><path class="cls-8" d="M105.35,19.54h-.84l-.73-2H100l-.73,2h-.84l3-8h.81Zm-3.44-7-1.59,4.31h3.18Zm5.08,1.3v1a1.84,1.84,0,0,1,1.78-1v.73a1.71,1.71,0,0,0-1.29.49,1.87,1.87,0,0,0-.49,1.42v3.2h-.74V13.79Z"/><path class="cls-9" d="M9.94,11.49h2.82a2.38,2.38,0,0,1,1.77.73,2.64,2.64,0,0,1,0,3.6,2.38,2.38,0,0,1-1.77.73h-2v3H9.94Zm.79,4.3h2A1.57,1.57,0,0,0,14,15.3,1.73,1.73,0,0,0,14.45,14,1.7,1.7,0,0,0,14,12.76a1.55,1.55,0,0,0-1.2-.51h-2ZM17.39,12a.53.53,0,0,1-.16.39.49.49,0,0,1-.38.16.53.53,0,0,1-.39-.16.58.58,0,0,1,0-.78.53.53,0,0,1,.39-.16.49.49,0,0,1,.38.16A.53.53,0,0,1,17.39,12Zm-.17,7.52h-.74V13.79h.74Z"/><path class="cls-8" d="M188.51,11.49h5.64v.76h-2.43v7.29h-.79V12.25h-2.42ZM199,14.92V13.79h.75v5.75H199V18.41a2.49,2.49,0,0,1-2.27,1.26,2.81,2.81,0,0,1-2.07-.87,3.13,3.13,0,0,1,0-4.27,2.78,2.78,0,0,1,2.07-.88A2.48,2.48,0,0,1,199,14.92Zm-3.79,3.36a2.09,2.09,0,0,0,1.57.66,2.11,2.11,0,0,0,1.58-.66,2.26,2.26,0,0,0,.64-1.62,2.22,2.22,0,0,0-.64-1.61,2.11,2.11,0,0,0-1.58-.66,2.09,2.09,0,0,0-1.57.66,2.23,2.23,0,0,0-.65,1.61A2.27,2.27,0,0,0,195.2,18.28Z"/><path class="cls-8" d="M280.76,15.71h3.94v.41a3.4,3.4,0,0,1-1,2.53,4.31,4.31,0,0,1-5.77-.18,4.08,4.08,0,0,1-1.18-3,4.07,4.07,0,0,1,1.18-2.95,4.14,4.14,0,0,1,5-.67,3.79,3.79,0,0,1,1.4,1.44l-.69.41a2.84,2.84,0,0,0-1.11-1.17,3.08,3.08,0,0,0-1.61-.43,3.16,3.16,0,0,0-2.41,1,3.34,3.34,0,0,0-.94,2.4,3.35,3.35,0,0,0,.94,2.41,3.57,3.57,0,0,0,4.54.29,2.59,2.59,0,0,0,.91-1.74h-3.13Zm7.79-2.06a2.49,2.49,0,0,1,2,.91,3.15,3.15,0,0,1,.78,2.13,3.46,3.46,0,0,1,0,.35h-4.95a2.12,2.12,0,0,0,.72,1.38,2.27,2.27,0,0,0,1.53.52,1.89,1.89,0,0,0,1.81-1l.65.39a2.6,2.6,0,0,1-1,1,3.05,3.05,0,0,1-1.46.34,2.88,2.88,0,0,1-3-3,3,3,0,0,1,.82-2.15A2.81,2.81,0,0,1,288.55,13.65Zm0,.74a2.12,2.12,0,0,0-1.48.53,2.19,2.19,0,0,0-.7,1.39h4.21a2.26,2.26,0,0,0-.69-1.42A2,2,0,0,0,288.55,14.39Z"/><path class="cls-8" d="M281.25,110.46a4,4,0,0,1-3-1.2,4.32,4.32,0,0,1,0-5.91,3.93,3.93,0,0,1,3-1.21,3.84,3.84,0,0,1,2,.54,3.71,3.71,0,0,1,1.42,1.44l-.7.41a2.81,2.81,0,0,0-1.1-1.17,3.12,3.12,0,0,0-1.61-.44,3.19,3.19,0,0,0-2.42,1,3.56,3.56,0,0,0,0,4.8,3.15,3.15,0,0,0,2.42,1,3.12,3.12,0,0,0,1.61-.44,2.81,2.81,0,0,0,1.1-1.17l.7.4a3.57,3.57,0,0,1-1.41,1.45A3.87,3.87,0,0,1,281.25,110.46Zm7.23-6a2.07,2.07,0,0,1,1.61.64,2.42,2.42,0,0,1,.6,1.72v3.52H290V106.8a1.66,1.66,0,0,0-.41-1.2,1.46,1.46,0,0,0-1.12-.42,1.74,1.74,0,0,0-1.35.54,2.32,2.32,0,0,0-.48,1.59v3h-.74v-5.74h.74v.89A2.07,2.07,0,0,1,288.48,104.44Z"/><path class="cls-8" d="M278.09,193.07v7.28h3.61v.76h-4.4v-8Zm6.94,2.16a2.49,2.49,0,0,1,2,.91,3.1,3.1,0,0,1,.77,2.12,3.47,3.47,0,0,1,0,.36h-4.95a2.13,2.13,0,0,0,.73,1.38,2.27,2.27,0,0,0,1.52.51,1.89,1.89,0,0,0,1.81-1l.66.39a2.6,2.6,0,0,1-1,1,3,3,0,0,1-1.45.35,2.9,2.9,0,0,1-2.17-.85,3,3,0,0,1-.83-2.16,3,3,0,0,1,.82-2.15A2.79,2.79,0,0,1,285,195.23Zm0,.73a2.17,2.17,0,0,0-1.48.53,2.22,2.22,0,0,0-.7,1.39h4.21a2.16,2.16,0,0,0-.69-1.41A2,2,0,0,0,285,196Z"/><path class="cls-8" d="M280,291.9h-.81l-2.91-8h.86l2.46,7,2.45-7h.86Zm4.51-7.52a.53.53,0,0,1-.16.39.49.49,0,0,1-.38.16.53.53,0,0,1-.54-.55.56.56,0,0,1,.15-.39.57.57,0,0,1,.39-.16.53.53,0,0,1,.38.16A.57.57,0,0,1,284.48,284.38Zm-.17,7.52h-.75v-5.75h.75Z"/><path class="cls-8" d="M187.66,283.85v7.29h3.61v.76h-4.39v-8Zm5.54.53a.5.5,0,0,1-.16.39.53.53,0,0,1-.76,0,.5.5,0,0,1-.16-.39.54.54,0,1,1,1.08,0ZM193,291.9h-.74v-5.75H193Z"/><path class="cls-8" d="M101.78,292a3.33,3.33,0,0,1-1.86-.52,2.76,2.76,0,0,1-1.07-1.45l.68-.4a2,2,0,0,0,.79,1.17,2.45,2.45,0,0,0,1.47.41,2.19,2.19,0,0,0,1.37-.39,1.26,1.26,0,0,0,.49-1.05,1.12,1.12,0,0,0-.45-1,5.83,5.83,0,0,0-1.49-.66,9.48,9.48,0,0,1-1.62-.67,1.77,1.77,0,0,1-.9-1.6,2,2,0,0,1,.7-1.61,2.5,2.5,0,0,1,1.72-.59,2.71,2.71,0,0,1,1.58.48,2.78,2.78,0,0,1,1,1.25l-.66.38a1.94,1.94,0,0,0-1.94-1.33,1.75,1.75,0,0,0-1.19.38,1.22,1.22,0,0,0-.44,1,1,1,0,0,0,.4.89,5.19,5.19,0,0,0,1.34.61l.61.22a5.57,5.57,0,0,1,.54.21,2.42,2.42,0,0,1,.53.25,2.08,2.08,0,0,1,.76.68,1.92,1.92,0,0,1,.28,1,2.05,2.05,0,0,1-.73,1.65A3,3,0,0,1,101.78,292Zm6.64,0a2.83,2.83,0,0,1-2.12-.87,3,3,0,0,1-.85-2.14,2.89,2.89,0,0,1,.85-2.14,2.84,2.84,0,0,1,2.12-.88,2.78,2.78,0,0,1,1.5.42,2.44,2.44,0,0,1,1,1.09l-.61.36a1.73,1.73,0,0,0-.74-.82,2,2,0,0,0-1.12-.31,2.09,2.09,0,0,0-1.58.67,2.19,2.19,0,0,0-.64,1.61,2.29,2.29,0,0,0,.64,1.62,2.14,2.14,0,0,0,1.58.65,2.1,2.1,0,0,0,1.11-.3,2,2,0,0,0,.79-.83l.62.37a2.55,2.55,0,0,1-1,1.09A2.86,2.86,0,0,1,108.42,292Z"/><path class="cls-8" d="M12.84,292a3.33,3.33,0,0,1-1.86-.52,2.76,2.76,0,0,1-1.07-1.45l.67-.4a2.14,2.14,0,0,0,.79,1.17,2.49,2.49,0,0,0,1.48.41,2.14,2.14,0,0,0,1.36-.39,1.27,1.27,0,0,0,.5-1.05,1.12,1.12,0,0,0-.45-1,5.83,5.83,0,0,0-1.49-.66,9.48,9.48,0,0,1-1.62-.67,1.77,1.77,0,0,1-.9-1.6,2,2,0,0,1,.69-1.61,2.54,2.54,0,0,1,1.73-.59,2.71,2.71,0,0,1,1.58.48,2.78,2.78,0,0,1,1,1.25l-.66.38a1.94,1.94,0,0,0-1.94-1.33,1.78,1.78,0,0,0-1.2.38,1.25,1.25,0,0,0-.44,1,1,1,0,0,0,.41.89,5.19,5.19,0,0,0,1.34.61l.61.22a5.57,5.57,0,0,1,.54.21,2.68,2.68,0,0,1,.53.25,2.08,2.08,0,0,1,.76.68,2,2,0,0,1,.28,1,2.08,2.08,0,0,1-.73,1.65A3,3,0,0,1,12.84,292Zm8.86-4.76v-1.13h.74v5.52a2.43,2.43,0,0,1-.83,1.95,3,3,0,0,1-2,.71,2.7,2.7,0,0,1-2.67-1.4l.65-.38a2,2,0,0,0,2,1.05,2.11,2.11,0,0,0,1.52-.52,1.79,1.79,0,0,0,.57-1.41v-.9A2.53,2.53,0,0,1,19.42,292a2.76,2.76,0,0,1-2.06-.88,3.11,3.11,0,0,1,0-4.27,2.8,2.8,0,0,1,2.06-.88A2.53,2.53,0,0,1,21.7,287.28Zm-3.8,3.37a2.23,2.23,0,0,0,3.15,0A2.3,2.3,0,0,0,21.7,289a2.19,2.19,0,0,0-.65-1.61,2.19,2.19,0,0,0-3.15,0,2.19,2.19,0,0,0-.64,1.61A2.29,2.29,0,0,0,17.9,290.65Z"/><path class="cls-8" d="M13.71,201.25a3.91,3.91,0,0,1-3-1.21,4.28,4.28,0,0,1,0-5.9,3.91,3.91,0,0,1,3-1.21,3.87,3.87,0,0,1,2,.54,3.78,3.78,0,0,1,1.42,1.44l-.7.41a2.84,2.84,0,0,0-1.11-1.17,3.09,3.09,0,0,0-1.61-.44,3.16,3.16,0,0,0-2.41,1,3.53,3.53,0,0,0,0,4.8,3.16,3.16,0,0,0,2.41,1,3.09,3.09,0,0,0,1.61-.44,2.84,2.84,0,0,0,1.11-1.17l.7.4a3.71,3.71,0,0,1-1.41,1.45A3.93,3.93,0,0,1,13.71,201.25Zm7.62-6a2.75,2.75,0,0,1,2.05.87,3.09,3.09,0,0,1,0,4.28,2.75,2.75,0,0,1-2.05.87A2.51,2.51,0,0,1,19.05,200v3.43h-.74v-8h.74v1.12A2.52,2.52,0,0,1,21.33,195.23Zm-1.63,4.63a2.08,2.08,0,0,0,1.57.65,2.1,2.1,0,0,0,1.58-.65,2.26,2.26,0,0,0,.64-1.62,2.2,2.2,0,0,0-.64-1.61,2.09,2.09,0,0,0-1.58-.67,2.06,2.06,0,0,0-1.57.67,2.21,2.21,0,0,0-.65,1.61A2.27,2.27,0,0,0,19.7,199.86Z"/><path class="cls-8" d="M17.38,110.32h-.84l-.73-2H12.07l-.73,2H10.5l3-8h.81Zm-3.44-7-1.59,4.31h3.18ZM23,105.7v-1.12h.74v8H23V109.2a2.52,2.52,0,0,1-2.28,1.26,2.77,2.77,0,0,1-2.06-.87,3.12,3.12,0,0,1,0-4.28,2.77,2.77,0,0,1,2.06-.87A2.52,2.52,0,0,1,23,105.7Zm-3.8,3.37a2.21,2.21,0,0,0,3.15,0,2.27,2.27,0,0,0,.65-1.62,2.23,2.23,0,0,0-.65-1.61,2.21,2.21,0,0,0-3.15,0,2.23,2.23,0,0,0-.65,1.61A2.27,2.27,0,0,0,19.22,109.07Z"/><rect class="cls-7" y="271.21" width="89.03" height="1.15"/><rect class="cls-7" x="87.9" y="180.43" width="1.13" height="90.79"/></svg>