<svg width="355" height="362" viewBox="0 0 355 362" fill="none" xmlns="http://www.w3.org/2000/svg">
    <g filter="url(#filter0_dd_482_11781)">
        <rect x="20" y="20" width="315" height="315" rx="10" fill="url(#paint0_radial_482_11781)"/>
    </g>
    <g opacity="0.5">
        <path d="M284.87 279.385C280.151 279.385 276.296 276.784 276.037 273.507C276.028 273.624 276.022 273.74 276.022 273.857C276.022 277.297 279.984 280.086 284.87 280.086C289.756 280.086 293.717 277.297 293.717 273.857C293.717 273.74 293.712 273.624 293.703 273.507C293.444 276.784 289.588 279.385 284.87 279.385Z" fill="#261C5C"/>
        <path d="M281.313 278.846C282.363 278.137 283.602 277.757 284.87 277.757C286.138 277.757 287.377 278.137 288.427 278.846C288.634 278.782 288.836 278.712 289.034 278.638C287.838 277.727 286.375 277.233 284.87 277.233C283.365 277.233 281.902 277.727 280.705 278.638C280.903 278.713 281.106 278.782 281.313 278.846Z" fill="#261C5C"/>
        <path d="M293.343 272L293.978 272.98L295.003 272.417L294.47 273.456L295.472 274.06L294.303 274.119L294.28 275.286L293.644 274.305L292.619 274.869L293.152 273.83L292.15 273.226L293.319 273.167L293.343 272Z" fill="#261C5C"/>
        <path d="M280.267 290.543C279.929 290.544 279.598 290.444 279.316 290.256C279.035 290.069 278.815 289.803 278.685 289.491C278.556 289.179 278.522 288.836 278.587 288.505C278.653 288.174 278.816 287.87 279.055 287.631C279.294 287.392 279.599 287.229 279.931 287.163C280.263 287.097 280.607 287.131 280.919 287.26C281.232 287.389 281.499 287.608 281.687 287.889C281.875 288.169 281.976 288.499 281.976 288.837C281.975 289.289 281.795 289.722 281.475 290.042C281.154 290.362 280.72 290.542 280.267 290.543ZM280.267 287.48C279.998 287.479 279.735 287.559 279.511 287.708C279.287 287.856 279.112 288.068 279.009 288.316C278.906 288.564 278.878 288.837 278.931 289.1C278.983 289.364 279.112 289.606 279.303 289.796C279.493 289.986 279.735 290.115 279.999 290.168C280.263 290.22 280.537 290.193 280.785 290.091C281.034 289.988 281.247 289.814 281.396 289.591C281.546 289.368 281.625 289.105 281.625 288.837C281.625 288.477 281.482 288.133 281.227 287.878C280.973 287.624 280.627 287.481 280.267 287.48Z" fill="#261C5C"/>
        <path d="M279.512 287.502C278.756 286.322 278.415 284.925 278.541 283.53C278.667 282.135 279.253 280.821 280.207 279.794C280.038 279.72 279.873 279.642 279.711 279.561C278.717 280.684 278.118 282.101 278.009 283.596C277.899 285.091 278.283 286.58 279.103 287.836C279.219 287.702 279.358 287.589 279.512 287.502Z" fill="#261C5C"/>
        <path d="M290.028 279.561C289.867 279.643 289.702 279.72 289.532 279.793C290.572 280.911 291.173 282.365 291.225 283.889C291.277 285.412 290.777 286.904 289.816 288.09C288.855 289.275 287.497 290.075 285.993 290.343C284.488 290.61 282.937 290.327 281.624 289.546C281.542 289.703 281.433 289.845 281.302 289.965C282.708 290.819 284.374 291.141 285.997 290.874C287.621 290.606 289.095 289.767 290.151 288.507C291.207 287.248 291.775 285.653 291.753 284.011C291.73 282.37 291.118 280.79 290.028 279.561Z" fill="#261C5C"/>
        <path d="M293.814 296.852L293.849 296.888C293.959 296.997 294.063 297.002 294.164 296.902C294.203 296.862 294.235 296.815 294.259 296.765L295.303 294.489L294.104 293.29L291.875 294.326C291.83 294.347 291.788 294.375 291.752 294.409C291.699 294.457 291.666 294.524 291.66 294.596C291.658 294.624 291.661 294.653 291.67 294.679C291.678 294.706 291.693 294.73 291.712 294.751L291.746 294.785L291.678 294.853L290.918 294.093L290.986 294.025L291.022 294.061C291.061 294.093 291.106 294.116 291.155 294.128C291.203 294.14 291.254 294.14 291.303 294.13C291.438 294.114 291.57 294.076 291.694 294.019L297.43 291.423L294.831 297.081C294.77 297.208 294.726 297.343 294.698 297.481C294.682 297.542 294.682 297.606 294.698 297.667C294.714 297.729 294.746 297.785 294.791 297.83L294.825 297.864L294.757 297.932L293.745 296.921L293.814 296.852ZM294.401 293.124L295.458 294.181L296.359 292.226L294.401 293.124Z" fill="#261C5C"/>
        <path d="M295.196 298.372L295.264 298.304C295.282 298.321 295.303 298.336 295.327 298.345C295.35 298.354 295.375 298.359 295.4 298.358C295.457 298.358 295.514 298.35 295.568 298.335C295.627 298.318 295.682 298.292 295.733 298.26C295.78 298.229 295.825 298.193 295.866 298.153L299.362 294.657C299.437 294.583 299.499 294.498 299.547 294.404C299.592 294.313 299.56 294.208 299.451 294.089L299.519 294.021L300.421 294.5L296.317 298.605C296.277 298.645 296.242 298.69 296.211 298.738C296.178 298.789 296.152 298.844 296.136 298.902C296.12 298.955 296.111 299.01 296.108 299.066C296.107 299.091 296.111 299.116 296.12 299.139C296.129 299.162 296.143 299.183 296.16 299.2L296.092 299.268L295.196 298.372Z" fill="#261C5C"/>
        <path d="M301.125 298.469C301.35 298.683 301.526 298.944 301.64 299.234C301.733 299.484 301.774 299.751 301.76 300.017C301.744 300.275 301.676 300.528 301.559 300.759C301.442 300.994 301.287 301.208 301.101 301.394C300.918 301.577 300.707 301.73 300.476 301.848C300.247 301.967 299.996 302.041 299.738 302.066C299.476 302.09 299.212 302.058 298.962 301.973C298.679 301.871 298.424 301.704 298.216 301.486C298.067 301.332 297.957 301.144 297.894 300.939C297.821 300.718 297.781 300.488 297.777 300.255L296.439 301.593C296.399 301.634 296.363 301.679 296.333 301.727C296.299 301.777 296.273 301.833 296.256 301.891C296.241 301.945 296.232 302 296.229 302.056C296.227 302.08 296.231 302.105 296.24 302.128C296.249 302.151 296.263 302.171 296.281 302.189L296.212 302.257L295.323 301.368L295.391 301.299C295.409 301.315 295.429 301.328 295.451 301.336C295.473 301.344 295.497 301.348 295.52 301.347C295.578 301.348 295.635 301.341 295.691 301.326C295.749 301.309 295.805 301.284 295.855 301.251C295.903 301.22 295.948 301.184 295.988 301.144L299.446 297.687C299.487 297.646 299.527 297.606 299.565 297.567C299.599 297.53 299.626 297.488 299.644 297.441C299.66 297.397 299.664 297.349 299.656 297.303C299.642 297.242 299.611 297.186 299.568 297.14L299.635 297.073L300.305 297.744L300.005 298.045C300.204 298.026 300.405 298.052 300.593 298.121C300.794 298.197 300.975 298.315 301.125 298.469ZM298.456 301.263C298.603 301.408 298.784 301.514 298.982 301.571C299.165 301.621 299.357 301.631 299.543 301.599C299.732 301.567 299.914 301.501 300.08 301.405C300.254 301.305 300.413 301.182 300.555 301.04C300.718 300.876 300.859 300.689 300.971 300.487C301.081 300.292 301.158 300.081 301.199 299.861C301.238 299.654 301.234 299.441 301.188 299.235C301.148 299.065 301.068 298.906 300.955 298.771C300.842 298.637 300.7 298.53 300.539 298.46C300.412 298.404 300.274 298.374 300.135 298.371C299.994 298.369 299.854 298.393 299.721 298.442C299.579 298.497 299.451 298.583 299.345 298.693L298.457 299.581C298.339 299.696 298.249 299.838 298.195 299.994C298.143 300.142 298.119 300.298 298.123 300.456C298.127 300.608 298.16 300.759 298.219 300.9C298.274 301.035 298.354 301.158 298.454 301.262L298.456 301.263Z" fill="#261C5C"/>
        <path d="M303.473 305.759C303.433 305.8 303.397 305.844 303.367 305.892C303.333 305.943 303.308 305.998 303.292 306.057C303.276 306.11 303.267 306.165 303.264 306.221C303.263 306.246 303.267 306.27 303.276 306.293C303.285 306.316 303.298 306.337 303.316 306.354L303.248 306.422L302.365 305.539L302.433 305.471C302.45 305.487 302.471 305.5 302.493 305.508C302.515 305.516 302.539 305.52 302.562 305.519C302.619 305.519 302.676 305.511 302.73 305.495C302.789 305.479 302.844 305.453 302.895 305.42C302.942 305.389 302.987 305.354 303.028 305.314L304.299 304.043C304.448 303.899 304.571 303.73 304.661 303.544C304.735 303.39 304.776 303.222 304.783 303.052C304.789 302.899 304.761 302.748 304.701 302.607C304.588 302.339 304.374 302.125 304.105 302.011C303.972 301.953 303.83 301.919 303.685 301.912C303.537 301.906 303.389 301.928 303.249 301.978C303.099 302.03 302.964 302.117 302.853 302.23L301.398 303.684C301.359 303.725 301.323 303.77 301.292 303.818C301.259 303.868 301.234 303.924 301.217 303.982C301.202 304.036 301.193 304.091 301.19 304.146C301.188 304.171 301.192 304.196 301.201 304.219C301.21 304.242 301.224 304.262 301.241 304.28L301.173 304.348L300.283 303.458L300.351 303.39C300.369 303.406 300.389 303.419 300.412 303.427C300.434 303.435 300.458 303.439 300.481 303.438C300.538 303.438 300.594 303.429 300.649 303.414C300.707 303.398 300.763 303.372 300.813 303.339C300.861 303.308 300.906 303.273 300.947 303.233L304.436 299.743C304.511 299.67 304.573 299.584 304.62 299.49C304.666 299.399 304.636 299.297 304.531 299.182L304.6 299.114L305.496 299.586L303.522 301.561C303.604 301.557 303.685 301.559 303.767 301.567C303.871 301.574 303.973 301.593 304.073 301.622C304.192 301.66 304.306 301.711 304.412 301.775C304.547 301.856 304.672 301.955 304.781 302.069C304.975 302.252 305.125 302.476 305.22 302.725C305.295 302.935 305.325 303.158 305.306 303.379C305.287 303.586 305.229 303.787 305.133 303.97C305.043 304.144 304.927 304.302 304.789 304.44L303.473 305.759Z" fill="#261C5C"/>
        <path d="M305.725 308.901L306.074 308.553L306.005 308.552C305.779 308.552 305.555 308.509 305.345 308.425C304.929 308.232 304.584 307.915 304.356 307.518C304.283 307.384 304.24 307.236 304.229 307.084C304.221 306.95 304.244 306.817 304.297 306.694C304.349 306.573 304.425 306.462 304.519 306.369C304.662 306.22 304.85 306.121 305.054 306.085C305.281 306.053 305.513 306.071 305.733 306.138C306.022 306.222 306.303 306.334 306.569 306.473C306.875 306.628 307.213 306.818 307.582 307.042C307.73 306.89 307.84 306.704 307.903 306.501C307.947 306.345 307.957 306.181 307.933 306.02C307.911 305.879 307.861 305.743 307.784 305.621C307.722 305.521 307.65 305.428 307.569 305.343C307.464 305.233 307.338 305.145 307.199 305.084C307.081 305.033 306.956 305.002 306.827 304.991C306.71 304.982 306.591 304.987 306.475 305.008C306.374 305.026 306.275 305.052 306.178 305.086L306.115 305.023L306.616 304.522C306.657 304.554 306.703 304.577 306.753 304.591C306.812 304.611 306.869 304.635 306.924 304.663C307.02 304.704 307.153 304.758 307.325 304.825C307.543 304.925 307.74 305.068 307.902 305.246C308.117 305.446 308.292 305.685 308.417 305.951C308.504 306.142 308.541 306.351 308.526 306.561C308.505 306.749 308.44 306.929 308.335 307.087C308.226 307.25 308.101 307.402 307.963 307.54L306.611 308.893C306.521 308.982 306.455 309.091 306.417 309.212C306.397 309.258 306.39 309.31 306.398 309.36C306.406 309.411 306.428 309.458 306.462 309.496L306.394 309.564L305.725 308.901ZM306.375 308.252L307.351 307.276L307.268 307.221C307.132 307.138 306.963 307.04 306.759 306.929C306.559 306.819 306.35 306.728 306.133 306.658C305.932 306.592 305.722 306.557 305.51 306.555C305.418 306.552 305.326 306.568 305.24 306.602C305.155 306.636 305.077 306.687 305.012 306.753C304.941 306.822 304.887 306.907 304.855 307C304.823 307.094 304.814 307.194 304.828 307.293C304.861 307.527 304.975 307.742 305.15 307.902C305.285 308.043 305.457 308.146 305.645 308.199C305.832 308.248 306.024 308.267 306.216 308.257L306.375 308.252Z" fill="#261C5C"/>
    </g>
    <rect x="177.5" y="20" width="222.739" height="222.739" transform="rotate(45 177.5 20)" stroke="#5C5B9F" stroke-opacity="0.2"/>
    <path d="M20.0225 20L273.022 273" stroke="#5C5B9F" stroke-opacity="0.2"/>
    <path d="M311.022 311L335.022 335" stroke="#5C5B9F" stroke-opacity="0.2"/>
    <path d="M335.022 20L20.0225 335" stroke="#5C5B9F" stroke-opacity="0.2"/>
    <path opacity="0.3" d="M200.58 176.528H201.66V177.32H200.58V179H199.74V177.32H195.3V176.528L198.42 170.6H199.344L196.224 176.528H199.74V173.96H200.58V176.528Z" fill="#5C5B9F"/>
    <path opacity="0.3" d="M265.764 95.984H267.18C267.972 95.984 268.636 96.216 269.172 96.68C269.724 97.136 270 97.764 270 98.564C270 99.356 269.724 99.988 269.172 100.46C268.636 100.916 267.972 101.144 267.18 101.144C266.532 101.144 265.96 100.988 265.464 100.676C264.976 100.356 264.648 99.916 264.48 99.356L265.188 98.948C265.308 99.388 265.544 99.728 265.896 99.968C266.248 100.208 266.676 100.328 267.18 100.328C267.772 100.328 268.248 100.172 268.608 99.86C268.976 99.54 269.16 99.108 269.16 98.564C269.16 98.02 268.976 97.592 268.608 97.28C268.248 96.96 267.772 96.8 267.18 96.8H264.9L265.2 92.6H269.7V93.392H265.944L265.764 95.984Z" fill="#5C5B9F"/>
    <path opacity="0.3" d="M270.52 252.392L268.564 255.092C269.228 255.172 269.78 255.432 270.22 255.872C270.66 256.288 270.88 256.852 270.88 257.564C270.88 258.356 270.604 258.988 270.052 259.46C269.516 259.916 268.852 260.144 268.06 260.144C267.428 260.144 266.868 260 266.38 259.712C265.892 259.416 265.552 259.004 265.36 258.476L266.056 258.068C266.192 258.476 266.432 258.788 266.776 259.004C267.128 259.22 267.556 259.328 268.06 259.328C268.652 259.328 269.128 259.172 269.488 258.86C269.856 258.54 270.04 258.108 270.04 257.564C270.04 257.02 269.856 256.592 269.488 256.28C269.128 255.96 268.652 255.8 268.06 255.8V255.788L268.048 255.8H267.82L267.46 255.248L269.548 252.392H265.6V251.6H270.52V252.392Z" fill="#5C5B9F"/>
    <path opacity="0.3" d="M145.362 171.368L147.582 170.6H148.302V179H147.462V171.524L145.578 172.088L145.362 171.368ZM155.38 177.968C154.828 178.752 154.048 179.144 153.04 179.144C152.04 179.144 151.256 178.752 150.688 177.968C150.136 177.176 149.86 176.12 149.86 174.8C149.86 173.472 150.136 172.42 150.688 171.644C151.256 170.852 152.04 170.456 153.04 170.456C154.048 170.456 154.828 170.852 155.38 171.644C155.94 172.42 156.22 173.472 156.22 174.8C156.22 176.128 155.94 177.184 155.38 177.968ZM151.312 177.404C151.736 178.02 152.312 178.328 153.04 178.328C153.776 178.328 154.348 178.02 154.756 177.404C155.172 176.796 155.38 175.928 155.38 174.8C155.38 173.672 155.172 172.804 154.756 172.196C154.348 171.58 153.776 171.272 153.04 171.272C152.312 171.272 151.736 171.58 151.312 172.196C150.904 172.812 150.7 173.68 150.7 174.8C150.7 175.92 150.904 176.788 151.312 177.404Z" fill="#5C5B9F"/>
    <path opacity="0.3" d="M89.3184 96.228C89.3184 96.86 89.1464 97.42 88.8024 97.908L86.0544 102H85.1064L87.1704 98.928C86.9544 98.976 86.7304 99 86.4984 99C85.6664 99 84.9904 98.744 84.4704 98.232C83.9424 97.72 83.6784 97.052 83.6784 96.228C83.6784 95.42 83.9424 94.756 84.4704 94.236C85.0064 93.716 85.6824 93.456 86.4984 93.456C87.3144 93.456 87.9904 93.716 88.5264 94.236C89.0544 94.756 89.3184 95.42 89.3184 96.228ZM85.0584 94.812C84.6984 95.172 84.5184 95.644 84.5184 96.228C84.5184 96.812 84.6984 97.284 85.0584 97.644C85.4344 98.004 85.9144 98.184 86.4984 98.184C87.0904 98.184 87.5664 98.004 87.9264 97.644C88.2944 97.284 88.4784 96.812 88.4784 96.228C88.4784 95.644 88.2944 95.172 87.9264 94.812C87.5664 94.452 87.0904 94.272 86.4984 94.272C85.9144 94.272 85.4344 94.452 85.0584 94.812Z" fill="#5C5B9F"/>
    <path opacity="0.3" d="M79.6019 252.368L81.8219 251.6H82.5419V260H81.7019V252.524L79.8179 253.088L79.6019 252.368ZM83.68 252.368L85.9 251.6H86.62V260H85.78V252.524L83.896 253.088L83.68 252.368Z" fill="#5C5B9F"/>
    <path opacity="0.3" d="M173.299 149.392V148.6H178.459V149.392L175.291 157H174.415L177.583 149.392H173.299Z" fill="#5C5B9F"/>
    <path opacity="0.3" d="M98.9169 85.668C99.3489 85.868 99.6889 86.148 99.9369 86.508C100.185 86.868 100.309 87.272 100.309 87.72C100.309 88.48 100.041 89.076 99.5049 89.508C98.9609 89.932 98.2929 90.144 97.5009 90.144C96.7089 90.144 96.0409 89.932 95.4969 89.508C94.9609 89.076 94.6929 88.48 94.6929 87.72C94.6929 87.272 94.8169 86.868 95.0649 86.508C95.3129 86.148 95.6529 85.868 96.0849 85.668C95.3409 85.244 94.9689 84.616 94.9689 83.784C94.9689 83.032 95.2169 82.456 95.7129 82.056C96.2249 81.656 96.8209 81.456 97.5009 81.456C98.1889 81.456 98.7809 81.656 99.2769 82.056C99.7809 82.456 100.033 83.032 100.033 83.784C100.033 84.616 99.6609 85.244 98.9169 85.668ZM95.8089 83.784C95.8089 84.248 95.9689 84.616 96.2889 84.888C96.6169 85.16 97.0209 85.296 97.5009 85.296C97.9809 85.296 98.3809 85.16 98.7009 84.888C99.0289 84.616 99.1929 84.248 99.1929 83.784C99.1929 83.296 99.0369 82.924 98.7249 82.668C98.4129 82.404 98.0049 82.272 97.5009 82.272C96.9969 82.272 96.5889 82.404 96.2769 82.668C95.9649 82.924 95.8089 83.296 95.8089 83.784ZM96.0729 88.92C96.4249 89.192 96.9009 89.328 97.5009 89.328C98.1009 89.328 98.5769 89.192 98.9289 88.92C99.2889 88.64 99.4689 88.24 99.4689 87.72C99.4689 87.208 99.2889 86.812 98.9289 86.532C98.5609 86.252 98.0849 86.112 97.5009 86.112C96.9169 86.112 96.4409 86.252 96.0729 86.532C95.7129 86.812 95.5329 87.208 95.5329 87.72C95.5329 88.248 95.7129 88.648 96.0729 88.92Z" fill="#5C5B9F"/>
    <path opacity="0.3" d="M255.498 82.6C256.314 82.6 256.99 82.86 257.526 83.38C258.054 83.9 258.318 84.564 258.318 85.372C258.318 86.196 258.054 86.864 257.526 87.376C257.006 87.888 256.33 88.144 255.498 88.144C254.666 88.144 253.99 87.888 253.47 87.376C252.942 86.864 252.678 86.196 252.678 85.372C252.678 84.74 252.85 84.18 253.194 83.692L255.942 79.6H256.89L254.826 82.672C255.042 82.624 255.266 82.6 255.498 82.6ZM254.058 86.788C254.434 87.148 254.914 87.328 255.498 87.328C256.09 87.328 256.566 87.148 256.926 86.788C257.294 86.428 257.478 85.956 257.478 85.372C257.478 84.788 257.294 84.316 256.926 83.956C256.566 83.596 256.09 83.416 255.498 83.416C254.914 83.416 254.434 83.596 254.058 83.956C253.698 84.316 253.518 84.788 253.518 85.372C253.518 85.956 253.698 86.428 254.058 86.788Z" fill="#5C5B9F"/>
    <path opacity="0.3" d="M173.641 196.368L175.861 195.6H176.581V204H175.741V196.524L173.857 197.088L173.641 196.368Z" fill="#5C5B9F"/>
    <path opacity="0.3" d="M259.168 272H253.828V271.244L256.852 268.196C257.716 267.332 258.148 266.592 258.148 265.976C258.148 265.456 257.984 265.044 257.656 264.74C257.336 264.428 256.936 264.272 256.456 264.272C255.6 264.272 254.972 264.668 254.572 265.46L253.864 265.04C254.12 264.528 254.476 264.136 254.932 263.864C255.388 263.592 255.896 263.456 256.456 263.456C257.128 263.456 257.716 263.684 258.22 264.14C258.732 264.58 258.988 265.192 258.988 265.976C258.988 266.44 258.86 266.896 258.604 267.344C258.348 267.784 257.956 268.268 257.428 268.796L255.028 271.184H259.168V272Z" fill="#5C5B9F"/>
    <path opacity="0.3" d="M91.4886 264.368L93.7086 263.6H94.4286V272H93.5886V264.524L91.7046 265.088L91.4886 264.368ZM101.207 272H95.8667V271.244L98.8907 268.196C99.7547 267.332 100.187 266.592 100.187 265.976C100.187 265.456 100.023 265.044 99.6947 264.74C99.3747 264.428 98.9747 264.272 98.4947 264.272C97.6387 264.272 97.0107 264.668 96.6107 265.46L95.9027 265.04C96.1587 264.528 96.5147 264.136 96.9707 263.864C97.4267 263.592 97.9347 263.456 98.4947 263.456C99.1667 263.456 99.7547 263.684 100.259 264.14C100.771 264.58 101.027 265.192 101.027 265.976C101.027 266.44 100.899 266.896 100.643 267.344C100.387 267.784 99.9947 268.268 99.4667 268.796L97.0667 271.184H101.207V272Z" fill="#5C5B9F"/>
    <path d="M81.648 187.168C80.824 187.168 80.128 186.984 79.56 186.616C78.992 186.248 78.588 185.74 78.348 185.092L79.764 184.264C80.092 185.12 80.736 185.548 81.696 185.548C82.144 185.548 82.48 185.468 82.704 185.308C82.928 185.148 83.04 184.932 83.04 184.66C83.04 184.364 82.908 184.136 82.644 183.976C82.38 183.808 81.908 183.628 81.228 183.436C80.492 183.212 79.912 182.952 79.488 182.656C78.96 182.264 78.696 181.688 78.696 180.928C78.696 180.16 78.964 179.556 79.5 179.116C80.036 178.66 80.688 178.432 81.456 178.432C82.128 178.432 82.724 178.596 83.244 178.924C83.764 179.252 84.168 179.716 84.456 180.316L83.064 181.12C82.728 180.4 82.192 180.04 81.456 180.04C81.12 180.04 80.852 180.12 80.652 180.28C80.452 180.432 80.352 180.632 80.352 180.88C80.352 181.144 80.46 181.36 80.676 181.528C80.916 181.696 81.34 181.872 81.948 182.056L82.524 182.248C82.628 182.28 82.808 182.348 83.064 182.452C83.304 182.54 83.48 182.624 83.592 182.704C83.984 182.944 84.248 183.192 84.384 183.448C84.592 183.784 84.696 184.18 84.696 184.636C84.696 185.412 84.412 186.028 83.844 186.484C83.276 186.94 82.544 187.168 81.648 187.168ZM90.4282 181.708V181H91.9762V187H90.4282V186.292C89.9642 186.876 89.3122 187.168 88.4722 187.168C87.6722 187.168 86.9842 186.864 86.4082 186.256C85.8402 185.64 85.5562 184.888 85.5562 184C85.5562 183.12 85.8402 182.372 86.4082 181.756C86.9842 181.14 87.6722 180.832 88.4722 180.832C89.3122 180.832 89.9642 181.124 90.4282 181.708ZM87.5722 185.224C87.8842 185.536 88.2802 185.692 88.7602 185.692C89.2402 185.692 89.6362 185.536 89.9482 185.224C90.2682 184.904 90.4282 184.496 90.4282 184C90.4282 183.504 90.2682 183.1 89.9482 182.788C89.6362 182.468 89.2402 182.308 88.7602 182.308C88.2802 182.308 87.8842 182.468 87.5722 182.788C87.2602 183.1 87.1042 183.504 87.1042 184C87.1042 184.496 87.2602 184.904 87.5722 185.224Z" fill="#37366B"/>
    <path d="M302.708 258.724V253.6H304.364V262H303.104L299.504 256.864V262H297.848V253.6H299.108L302.708 258.724ZM311.683 259.636H307.159C307.359 260.388 307.923 260.764 308.851 260.764C309.443 260.764 309.891 260.564 310.195 260.164L311.443 260.884C310.851 261.74 309.979 262.168 308.827 262.168C307.835 262.168 307.039 261.868 306.439 261.268C305.839 260.668 305.539 259.912 305.539 259C305.539 258.104 305.835 257.352 306.427 256.744C307.011 256.136 307.771 255.832 308.707 255.832C309.595 255.832 310.319 256.136 310.879 256.744C311.455 257.352 311.743 258.104 311.743 259C311.743 259.168 311.723 259.38 311.683 259.636ZM307.135 258.436H310.195C310.107 258.044 309.927 257.744 309.655 257.536C309.391 257.328 309.075 257.224 308.707 257.224C308.291 257.224 307.947 257.332 307.675 257.548C307.403 257.756 307.223 258.052 307.135 258.436ZM319.231 257.68L322.459 262H320.551L317.551 258.064V262H315.895V253.6H317.551V257.308L320.431 253.6H322.339L319.231 257.68ZM328.499 259.636H323.975C324.175 260.388 324.739 260.764 325.667 260.764C326.259 260.764 326.707 260.564 327.011 260.164L328.259 260.884C327.667 261.74 326.795 262.168 325.643 262.168C324.651 262.168 323.855 261.868 323.255 261.268C322.655 260.668 322.355 259.912 322.355 259C322.355 258.104 322.651 257.352 323.243 256.744C323.827 256.136 324.587 255.832 325.523 255.832C326.411 255.832 327.135 256.136 327.695 256.744C328.271 257.352 328.559 258.104 328.559 259C328.559 259.168 328.539 259.38 328.499 259.636ZM323.951 258.436H327.011C326.923 258.044 326.743 257.744 326.471 257.536C326.207 257.328 325.891 257.224 325.523 257.224C325.107 257.224 324.763 257.332 324.491 257.548C324.219 257.756 324.039 258.052 323.951 258.436ZM310.894 277H308.842L306.022 268.6H307.822L309.874 275.056L311.914 268.6H313.726L310.894 277ZM319.581 274.636H315.057C315.257 275.388 315.821 275.764 316.749 275.764C317.341 275.764 317.789 275.564 318.093 275.164L319.341 275.884C318.749 276.74 317.877 277.168 316.725 277.168C315.733 277.168 314.937 276.868 314.337 276.268C313.737 275.668 313.437 274.912 313.437 274C313.437 273.104 313.733 272.352 314.325 271.744C314.909 271.136 315.669 270.832 316.605 270.832C317.493 270.832 318.217 271.136 318.777 271.744C319.353 272.352 319.641 273.104 319.641 274C319.641 274.168 319.621 274.38 319.581 274.636ZM315.033 273.436H318.093C318.005 273.044 317.825 272.744 317.553 272.536C317.289 272.328 316.973 272.224 316.605 272.224C316.189 272.224 315.845 272.332 315.573 272.548C315.301 272.756 315.121 273.052 315.033 273.436Z" fill="#37366B"/>
    <path d="M95.296 315.6H97V324H95.356V318.552L92.992 322.452H92.8L90.436 318.564V324H88.78V315.6H90.484L92.896 319.572L95.296 315.6ZM103.605 323.256C102.997 323.864 102.245 324.168 101.349 324.168C100.453 324.168 99.7012 323.864 99.0932 323.256C98.4852 322.648 98.1812 321.896 98.1812 321C98.1812 320.112 98.4852 319.364 99.0932 318.756C99.7092 318.14 100.461 317.832 101.349 317.832C102.237 317.832 102.989 318.14 103.605 318.756C104.221 319.372 104.529 320.12 104.529 321C104.529 321.888 104.221 322.64 103.605 323.256ZM100.185 322.188C100.497 322.5 100.885 322.656 101.349 322.656C101.813 322.656 102.201 322.5 102.513 322.188C102.825 321.876 102.981 321.48 102.981 321C102.981 320.52 102.825 320.124 102.513 319.812C102.201 319.5 101.813 319.344 101.349 319.344C100.885 319.344 100.497 319.5 100.185 319.812C99.8812 320.132 99.7292 320.528 99.7292 321C99.7292 321.472 99.8812 321.868 100.185 322.188Z" fill="#37366B"/>
    <path d="M256.176 324H254.388L252.696 321.084H251.436V324H249.78V315.6H253.14C253.916 315.6 254.576 315.872 255.12 316.416C255.664 316.96 255.936 317.616 255.936 318.384C255.936 318.904 255.788 319.388 255.492 319.836C255.196 320.276 254.804 320.608 254.316 320.832L256.176 324ZM253.14 317.148H251.436V319.632H253.14C253.452 319.632 253.72 319.512 253.944 319.272C254.168 319.024 254.28 318.728 254.28 318.384C254.28 318.04 254.168 317.748 253.944 317.508C253.72 317.268 253.452 317.148 253.14 317.148ZM261.334 318.708V318H262.882V324H261.334V323.292C260.87 323.876 260.218 324.168 259.378 324.168C258.578 324.168 257.89 323.864 257.314 323.256C256.746 322.64 256.462 321.888 256.462 321C256.462 320.12 256.746 319.372 257.314 318.756C257.89 318.14 258.578 317.832 259.378 317.832C260.218 317.832 260.87 318.124 261.334 318.708ZM258.478 322.224C258.79 322.536 259.186 322.692 259.666 322.692C260.146 322.692 260.542 322.536 260.854 322.224C261.174 321.904 261.334 321.496 261.334 321C261.334 320.504 261.174 320.1 260.854 319.788C260.542 319.468 260.146 319.308 259.666 319.308C259.186 319.308 258.79 319.468 258.478 319.788C258.166 320.1 258.01 320.504 258.01 321C258.01 321.496 258.166 321.904 258.478 322.224Z" fill="#37366B"/>
    <path d="M83.116 53.68L86.344 58H84.436L81.436 54.064V58H79.78V49.6H81.436V53.308L84.316 49.6H86.224L83.116 53.68ZM92.3838 55.636H87.8598C88.0598 56.388 88.6238 56.764 89.5518 56.764C90.1438 56.764 90.5918 56.564 90.8958 56.164L92.1438 56.884C91.5518 57.74 90.6798 58.168 89.5278 58.168C88.5358 58.168 87.7398 57.868 87.1398 57.268C86.5398 56.668 86.2397 55.912 86.2397 55C86.2397 54.104 86.5358 53.352 87.1278 52.744C87.7118 52.136 88.4718 51.832 89.4078 51.832C90.2958 51.832 91.0198 52.136 91.5798 52.744C92.1558 53.352 92.4438 54.104 92.4438 55C92.4438 55.168 92.4238 55.38 92.3838 55.636ZM87.8358 54.436H90.8958C90.8078 54.044 90.6278 53.744 90.3558 53.536C90.0918 53.328 89.7758 53.224 89.4078 53.224C88.9918 53.224 88.6478 53.332 88.3758 53.548C88.1038 53.756 87.9238 54.052 87.8358 54.436Z" fill="#37366B"/>
    <path d="M244.296 49.6H246V58H244.356V52.552L241.992 56.452H241.8L239.436 52.564V58H237.78V49.6H239.484L241.896 53.572L244.296 49.6ZM253.325 55.636H248.801C249.001 56.388 249.565 56.764 250.493 56.764C251.085 56.764 251.533 56.564 251.837 56.164L253.085 56.884C252.493 57.74 251.621 58.168 250.469 58.168C249.477 58.168 248.681 57.868 248.081 57.268C247.481 56.668 247.181 55.912 247.181 55C247.181 54.104 247.477 53.352 248.069 52.744C248.653 52.136 249.413 51.832 250.349 51.832C251.237 51.832 251.961 52.136 252.521 52.744C253.097 53.352 253.385 54.104 253.385 55C253.385 55.168 253.365 55.38 253.325 55.636ZM248.777 54.436H251.837C251.749 54.044 251.569 53.744 251.297 53.536C251.033 53.328 250.717 53.224 250.349 53.224C249.933 53.224 249.589 53.332 249.317 53.548C249.045 53.756 248.865 54.052 248.777 54.436Z" fill="#37366B"/>
    <path d="M266.296 49.6H268V58H266.356V52.552L263.992 56.452H263.8L261.436 52.564V58H259.78V49.6H261.484L263.896 53.572L266.296 49.6ZM274.053 52.708V52H275.601V58H274.053V57.292C273.589 57.876 272.937 58.168 272.097 58.168C271.297 58.168 270.609 57.864 270.033 57.256C269.465 56.64 269.181 55.888 269.181 55C269.181 54.12 269.465 53.372 270.033 52.756C270.609 52.14 271.297 51.832 272.097 51.832C272.937 51.832 273.589 52.124 274.053 52.708ZM271.197 56.224C271.509 56.536 271.905 56.692 272.385 56.692C272.865 56.692 273.261 56.536 273.573 56.224C273.893 55.904 274.053 55.496 274.053 55C274.053 54.504 273.893 54.1 273.573 53.788C273.261 53.468 272.865 53.308 272.385 53.308C271.905 53.308 271.509 53.468 271.197 53.788C270.885 54.1 270.729 54.504 270.729 55C270.729 55.496 270.885 55.904 271.197 56.224Z" fill="#37366B"/>
    <path d="M171.648 106.168C170.824 106.168 170.128 105.984 169.56 105.616C168.992 105.248 168.588 104.74 168.348 104.092L169.764 103.264C170.092 104.12 170.736 104.548 171.696 104.548C172.144 104.548 172.48 104.468 172.704 104.308C172.928 104.148 173.04 103.932 173.04 103.66C173.04 103.364 172.908 103.136 172.644 102.976C172.38 102.808 171.908 102.628 171.228 102.436C170.492 102.212 169.912 101.952 169.488 101.656C168.96 101.264 168.696 100.688 168.696 99.928C168.696 99.16 168.964 98.556 169.5 98.116C170.036 97.66 170.688 97.432 171.456 97.432C172.128 97.432 172.724 97.596 173.244 97.924C173.764 98.252 174.168 98.716 174.456 99.316L173.064 100.12C172.728 99.4 172.192 99.04 171.456 99.04C171.12 99.04 170.852 99.12 170.652 99.28C170.452 99.432 170.352 99.632 170.352 99.88C170.352 100.144 170.46 100.36 170.676 100.528C170.916 100.696 171.34 100.872 171.948 101.056L172.524 101.248C172.628 101.28 172.808 101.348 173.064 101.452C173.304 101.54 173.48 101.624 173.592 101.704C173.984 101.944 174.248 102.192 174.384 102.448C174.592 102.784 174.696 103.18 174.696 103.636C174.696 104.412 174.412 105.028 173.844 105.484C173.276 105.94 172.544 106.168 171.648 106.168ZM179.664 103.24V100H181.212V106H179.664V105.328C179.296 105.888 178.7 106.168 177.876 106.168C177.22 106.168 176.676 105.948 176.244 105.508C175.82 105.06 175.608 104.452 175.608 103.684V100H177.156V103.492C177.156 103.884 177.26 104.188 177.468 104.404C177.684 104.62 177.976 104.728 178.344 104.728C178.752 104.728 179.072 104.604 179.304 104.356C179.544 104.1 179.664 103.728 179.664 103.24Z" fill="#37366B"/>
    <path d="M102.908 58H100.856L98.036 49.6H99.836L101.888 56.056L103.928 49.6H105.74L102.908 58ZM111.595 55.636H107.071C107.271 56.388 107.835 56.764 108.763 56.764C109.355 56.764 109.803 56.564 110.107 56.164L111.355 56.884C110.763 57.74 109.891 58.168 108.739 58.168C107.747 58.168 106.951 57.868 106.351 57.268C105.751 56.668 105.451 55.912 105.451 55C105.451 54.104 105.747 53.352 106.339 52.744C106.923 52.136 107.683 51.832 108.619 51.832C109.507 51.832 110.231 52.136 110.791 52.744C111.367 53.352 111.655 54.104 111.655 55C111.655 55.168 111.635 55.38 111.595 55.636ZM107.047 54.436H110.107C110.019 54.044 109.839 53.744 109.567 53.536C109.303 53.328 108.987 53.224 108.619 53.224C108.203 53.224 107.859 53.332 107.587 53.548C107.315 53.756 107.135 54.052 107.047 54.436Z" fill="#37366B"/>
    <path d="M100.168 187.168C98.848 187.168 97.924 186.636 97.396 185.572L98.824 184.756C99.088 185.284 99.536 185.548 100.168 185.548C100.6 185.548 100.924 185.448 101.14 185.248C101.364 185.04 101.476 184.752 101.476 184.384V178.6H103.12V184.384C103.12 185.264 102.844 185.948 102.292 186.436C101.748 186.924 101.04 187.168 100.168 187.168ZM108.5 184.24V181H110.048V187H108.5V186.328C108.132 186.888 107.536 187.168 106.712 187.168C106.056 187.168 105.512 186.948 105.08 186.508C104.656 186.06 104.444 185.452 104.444 184.684V181H105.992V184.492C105.992 184.884 106.096 185.188 106.304 185.404C106.52 185.62 106.812 185.728 107.18 185.728C107.588 185.728 107.908 185.604 108.14 185.356C108.38 185.1 108.5 184.728 108.5 184.24Z" fill="#37366B"/>
    <defs>
        <filter id="filter0_dd_482_11781" x="0" y="0" width="355" height="362" filterUnits="userSpaceOnUse" color-interpolation-filters="sRGB">
            <feFlood flood-opacity="0" result="BackgroundImageFix"/>
            <feColorMatrix in="SourceAlpha" type="matrix" values="0 0 0 0 0 0 0 0 0 0 0 0 0 0 0 0 0 0 127 0" result="hardAlpha"/>
            <feOffset dy="7"/>
            <feGaussianBlur stdDeviation="10"/>
            <feColorMatrix type="matrix" values="0 0 0 0 0.215922 0 0 0 0 0.211765 0 0 0 0 0.419608 0 0 0 1 0"/>
            <feBlend mode="normal" in2="BackgroundImageFix" result="effect1_dropShadow_482_11781"/>
            <feColorMatrix in="SourceAlpha" type="matrix" values="0 0 0 0 0 0 0 0 0 0 0 0 0 0 0 0 0 0 127 0" result="hardAlpha"/>
            <feOffset/>
            <feGaussianBlur stdDeviation="10"/>
            <feColorMatrix type="matrix" values="0 0 0 0 0.839216 0 0 0 0 0.847059 0 0 0 0 0.992157 0 0 0 1 0"/>
            <feBlend mode="normal" in2="effect1_dropShadow_482_11781" result="effect2_dropShadow_482_11781"/>
            <feBlend mode="normal" in="SourceGraphic" in2="effect2_dropShadow_482_11781" result="shape"/>
        </filter>
        <radialGradient id="paint0_radial_482_11781" cx="0" cy="0" r="1" gradientUnits="userSpaceOnUse" gradientTransform="translate(177.5 177.5) rotate(90) scale(157.5)">
            <stop offset="0.364583" stop-color="white"/>
            <stop offset="1" stop-color="#D6D7FD"/>
        </radialGradient>
    </defs>
</svg>
