<svg width="342" height="342" viewBox="9 20 320 300" fill="none" xmlns="http://www.w3.org/2000/svg">
    <g filter="url(#filter0_ddii_1386_38138)">
        <rect x="12" y="12" width="315" height="315" rx="10" fill="url(#paint0_radial_1386_38138)"/>
    </g>
    <g opacity="0.5">
        <path d="M276.871 271.385C272.152 271.385 268.297 268.784 268.038 265.507C268.029 265.624 268.023 265.74 268.023 265.857C268.023 269.297 271.985 272.086 276.871 272.086C281.757 272.086 285.718 269.297 285.718 265.857C285.718 265.74 285.713 265.624 285.704 265.507C285.445 268.784 281.589 271.385 276.871 271.385Z" fill="#261C5C"/>
        <path d="M273.313 270.846C274.363 270.137 275.602 269.757 276.87 269.757C278.138 269.757 279.377 270.137 280.427 270.846C280.634 270.782 280.836 270.712 281.034 270.638C279.838 269.727 278.375 269.233 276.87 269.233C275.365 269.233 273.902 269.727 272.705 270.638C272.903 270.713 273.106 270.782 273.313 270.846Z" fill="#261C5C"/>
        <path d="M285.345 264L285.98 264.98L287.005 264.417L286.472 265.456L287.473 266.06L286.305 266.119L286.282 267.286L285.646 266.305L284.621 266.869L285.154 265.83L284.152 265.226L285.321 265.167L285.345 264Z" fill="#261C5C"/>
        <path d="M272.269 282.543C271.93 282.543 271.6 282.444 271.318 282.256C271.037 282.069 270.817 281.803 270.687 281.491C270.558 281.179 270.523 280.836 270.589 280.505C270.655 280.174 270.818 279.869 271.057 279.631C271.296 279.392 271.601 279.229 271.933 279.163C272.265 279.097 272.609 279.131 272.921 279.26C273.234 279.389 273.501 279.608 273.689 279.888C273.877 280.169 273.978 280.499 273.978 280.837C273.977 281.289 273.797 281.722 273.477 282.042C273.156 282.362 272.722 282.542 272.269 282.543ZM272.269 279.48C272 279.479 271.737 279.559 271.513 279.707C271.289 279.856 271.114 280.068 271.011 280.316C270.908 280.564 270.88 280.837 270.933 281.1C270.985 281.364 271.114 281.606 271.305 281.796C271.495 281.986 271.737 282.115 272.001 282.168C272.265 282.22 272.539 282.193 272.787 282.091C273.036 281.988 273.248 281.814 273.398 281.591C273.548 281.368 273.627 281.105 273.627 280.837C273.627 280.477 273.484 280.133 273.229 279.878C272.974 279.624 272.629 279.48 272.269 279.48Z" fill="#261C5C"/>
        <path d="M271.514 279.502C270.758 278.322 270.417 276.925 270.543 275.53C270.669 274.135 271.255 272.821 272.209 271.794C272.04 271.72 271.875 271.642 271.713 271.561C270.719 272.684 270.12 274.101 270.011 275.596C269.901 277.091 270.285 278.58 271.105 279.836C271.221 279.702 271.36 279.589 271.514 279.502Z" fill="#261C5C"/>
        <path d="M282.029 271.56C281.868 271.643 281.703 271.72 281.533 271.793C282.573 272.911 283.174 274.365 283.226 275.888C283.278 277.412 282.778 278.904 281.817 280.089C280.856 281.275 279.498 282.075 277.994 282.342C276.489 282.61 274.938 282.327 273.625 281.546C273.543 281.703 273.434 281.845 273.303 281.965C274.708 282.819 276.375 283.141 277.998 282.873C279.622 282.606 281.096 281.766 282.152 280.507C283.208 279.248 283.776 277.653 283.754 276.011C283.731 274.369 283.119 272.79 282.029 271.56Z" fill="#261C5C"/>
        <path d="M285.815 288.852L285.85 288.887C285.96 288.997 286.064 289.002 286.165 288.902C286.204 288.862 286.236 288.815 286.26 288.765L287.304 286.489L286.105 285.29L283.876 286.326C283.831 286.346 283.789 286.374 283.753 286.409C283.699 286.457 283.666 286.524 283.661 286.596C283.658 286.624 283.662 286.652 283.67 286.679C283.679 286.706 283.694 286.73 283.713 286.751L283.747 286.785L283.679 286.853L282.919 286.093L282.987 286.025L283.023 286.061C283.062 286.093 283.107 286.116 283.156 286.128C283.204 286.139 283.255 286.14 283.304 286.13C283.439 286.114 283.571 286.076 283.695 286.019L289.431 283.423L286.832 289.081C286.771 289.208 286.726 289.342 286.699 289.481C286.683 289.542 286.683 289.606 286.699 289.667C286.715 289.729 286.747 289.784 286.792 289.83L286.826 289.863L286.758 289.932L285.746 288.921L285.815 288.852ZM286.402 285.124L287.459 286.18L288.36 284.225L286.402 285.124Z" fill="#261C5C"/>
        <path d="M287.198 290.372L287.266 290.303C287.284 290.321 287.305 290.335 287.329 290.345C287.352 290.354 287.377 290.359 287.402 290.358C287.459 290.358 287.516 290.35 287.57 290.335C287.629 290.318 287.684 290.292 287.735 290.259C287.782 290.228 287.827 290.193 287.868 290.153L291.364 286.657C291.439 286.583 291.501 286.498 291.549 286.404C291.594 286.312 291.562 286.208 291.453 286.089L291.521 286.021L292.423 286.5L288.319 290.605C288.279 290.645 288.244 290.69 288.213 290.738C288.18 290.788 288.154 290.844 288.138 290.902C288.122 290.955 288.113 291.01 288.11 291.066C288.109 291.091 288.113 291.115 288.122 291.139C288.131 291.162 288.145 291.182 288.162 291.2L288.094 291.268L287.198 290.372Z" fill="#261C5C"/>
        <path d="M293.127 290.468C293.352 290.683 293.528 290.944 293.642 291.234C293.735 291.484 293.776 291.75 293.762 292.017C293.746 292.275 293.678 292.528 293.561 292.759C293.444 292.994 293.289 293.208 293.103 293.394C292.92 293.577 292.709 293.73 292.478 293.848C292.249 293.967 291.998 294.041 291.74 294.066C291.478 294.09 291.213 294.058 290.964 293.973C290.681 293.871 290.426 293.704 290.218 293.486C290.069 293.332 289.959 293.144 289.896 292.939C289.823 292.718 289.783 292.487 289.779 292.255L288.441 293.593C288.401 293.634 288.365 293.679 288.335 293.727C288.301 293.777 288.275 293.833 288.258 293.891C288.243 293.945 288.234 294 288.231 294.055C288.229 294.08 288.233 294.105 288.242 294.128C288.251 294.151 288.265 294.171 288.283 294.188L288.214 294.257L287.325 293.367L287.393 293.299C287.41 293.315 287.431 293.328 287.453 293.336C287.475 293.344 287.499 293.348 287.522 293.347C287.58 293.348 287.637 293.341 287.693 293.326C287.751 293.309 287.807 293.284 287.857 293.251C287.905 293.22 287.95 293.184 287.99 293.144L291.448 289.687C291.488 289.646 291.529 289.606 291.567 289.567C291.601 289.53 291.628 289.487 291.646 289.441C291.662 289.397 291.666 289.349 291.658 289.303C291.643 289.242 291.613 289.186 291.57 289.14L291.636 289.073L292.307 289.744L292.007 290.045C292.206 290.026 292.407 290.052 292.595 290.121C292.795 290.197 292.977 290.315 293.127 290.468ZM290.458 293.263C290.605 293.408 290.786 293.513 290.984 293.571C291.167 293.621 291.359 293.631 291.545 293.599C291.734 293.566 291.916 293.501 292.082 293.405C292.256 293.305 292.415 293.182 292.556 293.04C292.72 292.876 292.86 292.689 292.973 292.486C293.083 292.292 293.16 292.081 293.201 291.861C293.24 291.654 293.236 291.441 293.19 291.235C293.15 291.065 293.07 290.906 292.957 290.771C292.844 290.637 292.702 290.53 292.541 290.46C292.414 290.404 292.276 290.374 292.137 290.371C291.996 290.369 291.856 290.393 291.723 290.442C291.581 290.497 291.453 290.583 291.347 290.693L290.459 291.581C290.341 291.696 290.251 291.838 290.197 291.994C290.145 292.142 290.121 292.298 290.125 292.455C290.129 292.608 290.162 292.759 290.221 292.9C290.276 293.035 290.356 293.158 290.456 293.262L290.458 293.263Z" fill="#261C5C"/>
        <path d="M295.474 297.759C295.434 297.799 295.398 297.844 295.368 297.892C295.334 297.943 295.309 297.998 295.293 298.056C295.277 298.11 295.268 298.165 295.265 298.221C295.264 298.245 295.268 298.27 295.277 298.293C295.286 298.316 295.299 298.337 295.317 298.354L295.249 298.422L294.366 297.539L294.434 297.471C294.451 297.487 294.472 297.5 294.494 297.508C294.516 297.516 294.54 297.52 294.563 297.519C294.62 297.518 294.677 297.51 294.731 297.495C294.79 297.478 294.845 297.453 294.896 297.42C294.943 297.389 294.988 297.354 295.029 297.314L296.3 296.043C296.449 295.899 296.572 295.73 296.662 295.544C296.736 295.39 296.777 295.222 296.784 295.051C296.79 294.899 296.762 294.747 296.702 294.607C296.589 294.338 296.375 294.124 296.106 294.011C295.973 293.953 295.831 293.919 295.686 293.911C295.538 293.905 295.39 293.928 295.25 293.977C295.1 294.03 294.965 294.116 294.854 294.23L293.399 295.684C293.36 295.725 293.324 295.77 293.293 295.818C293.26 295.868 293.235 295.924 293.218 295.982C293.203 296.036 293.194 296.091 293.191 296.146C293.189 296.171 293.193 296.195 293.202 296.218C293.211 296.241 293.225 296.262 293.242 296.279L293.174 296.348L292.284 295.458L292.352 295.389C292.37 295.406 292.39 295.418 292.412 295.427C292.435 295.435 292.459 295.439 292.482 295.438C292.539 295.437 292.595 295.429 292.65 295.414C292.708 295.397 292.764 295.372 292.814 295.338C292.862 295.308 292.907 295.273 292.948 295.233L296.437 291.743C296.512 291.669 296.574 291.584 296.621 291.49C296.667 291.399 296.637 291.297 296.532 291.182L296.601 291.113L297.497 291.586L295.523 293.561C295.604 293.557 295.686 293.559 295.768 293.567C295.872 293.574 295.974 293.592 296.074 293.622C296.193 293.659 296.307 293.71 296.413 293.774C296.548 293.856 296.673 293.955 296.782 294.068C296.976 294.251 297.126 294.476 297.221 294.725C297.296 294.934 297.326 295.157 297.307 295.379C297.288 295.585 297.23 295.786 297.134 295.97C297.044 296.143 296.928 296.302 296.79 296.44L295.474 297.759Z" fill="#261C5C"/>
        <path d="M297.725 300.901L298.074 300.552L298.005 300.552C297.779 300.552 297.555 300.509 297.345 300.425C296.929 300.232 296.584 299.915 296.356 299.518C296.283 299.384 296.24 299.236 296.229 299.084C296.221 298.95 296.244 298.817 296.297 298.694C296.349 298.573 296.425 298.462 296.519 298.369C296.662 298.22 296.85 298.121 297.054 298.085C297.281 298.053 297.513 298.071 297.733 298.138C298.022 298.221 298.303 298.334 298.569 298.473C298.875 298.628 299.213 298.818 299.582 299.042C299.73 298.889 299.84 298.704 299.903 298.501C299.947 298.345 299.957 298.181 299.933 298.02C299.911 297.878 299.861 297.742 299.784 297.621C299.722 297.521 299.65 297.428 299.569 297.343C299.464 297.233 299.338 297.145 299.199 297.084C299.081 297.033 298.956 297.002 298.827 296.991C298.71 296.981 298.591 296.987 298.475 297.008C298.374 297.026 298.275 297.052 298.178 297.086L298.115 297.023L298.616 296.522C298.657 296.554 298.703 296.577 298.753 296.591C298.812 296.611 298.869 296.635 298.924 296.663C299.02 296.704 299.153 296.758 299.325 296.824C299.543 296.925 299.74 297.068 299.902 297.245C300.117 297.446 300.292 297.685 300.417 297.95C300.504 298.141 300.541 298.351 300.526 298.56C300.505 298.749 300.44 298.929 300.335 299.086C300.226 299.25 300.101 299.402 299.963 299.54L298.611 300.892C298.521 300.982 298.455 301.091 298.417 301.212C298.397 301.258 298.39 301.31 298.398 301.36C298.406 301.411 298.428 301.458 298.462 301.496L298.394 301.564L297.725 300.901ZM298.375 300.252L299.351 299.275L299.268 299.221C299.132 299.138 298.963 299.04 298.759 298.929C298.559 298.819 298.35 298.728 298.133 298.658C297.932 298.592 297.722 298.557 297.51 298.555C297.418 298.552 297.326 298.568 297.24 298.602C297.155 298.636 297.077 298.687 297.012 298.753C296.941 298.822 296.887 298.907 296.855 299C296.823 299.094 296.814 299.194 296.828 299.293C296.861 299.527 296.975 299.742 297.15 299.901C297.285 300.043 297.457 300.146 297.645 300.199C297.832 300.248 298.024 300.267 298.216 300.257L298.375 300.252Z" fill="#261C5C"/>
    </g>
    <rect x="169.5" y="12" width="222.739" height="222.739" transform="rotate(45 169.5 12)" stroke="#5C5B9F" stroke-opacity="0.2"/>
    <path d="M12.0234 12L265.023 265" stroke="#5C5B9F" stroke-opacity="0.2"/>
    <path d="M303.023 303L327.023 327" stroke="#5C5B9F" stroke-opacity="0.2"/>
    <path d="M327.023 12L12.0234 327" stroke="#5C5B9F" stroke-opacity="0.2"/>
    <path opacity="0.3" d="M192.58 168.528H193.66V169.32H192.58V171H191.74V169.32H187.3V168.528L190.42 162.6H191.344L188.224 168.528H191.74V165.96H192.58V168.528Z" fill="#5C5B9F"/>
    <path opacity="0.3" d="M257.764 87.984H259.18C259.972 87.984 260.636 88.216 261.172 88.68C261.724 89.136 262 89.764 262 90.564C262 91.356 261.724 91.988 261.172 92.46C260.636 92.916 259.972 93.144 259.18 93.144C258.532 93.144 257.96 92.988 257.464 92.676C256.976 92.356 256.648 91.916 256.48 91.356L257.188 90.948C257.308 91.388 257.544 91.728 257.896 91.968C258.248 92.208 258.676 92.328 259.18 92.328C259.772 92.328 260.248 92.172 260.608 91.86C260.976 91.54 261.16 91.108 261.16 90.564C261.16 90.02 260.976 89.592 260.608 89.28C260.248 88.96 259.772 88.8 259.18 88.8H256.9L257.2 84.6H261.7V85.392H257.944L257.764 87.984Z" fill="#5C5B9F"/>
    <path opacity="0.3" d="M262.52 244.392L260.564 247.092C261.228 247.172 261.78 247.432 262.22 247.872C262.66 248.288 262.88 248.852 262.88 249.564C262.88 250.356 262.604 250.988 262.052 251.46C261.516 251.916 260.852 252.144 260.06 252.144C259.428 252.144 258.868 252 258.38 251.712C257.892 251.416 257.552 251.004 257.36 250.476L258.056 250.068C258.192 250.476 258.432 250.788 258.776 251.004C259.128 251.22 259.556 251.328 260.06 251.328C260.652 251.328 261.128 251.172 261.488 250.86C261.856 250.54 262.04 250.108 262.04 249.564C262.04 249.02 261.856 248.592 261.488 248.28C261.128 247.96 260.652 247.8 260.06 247.8V247.788L260.048 247.8H259.82L259.46 247.248L261.548 244.392H257.6V243.6H262.52V244.392Z" fill="#5C5B9F"/>
    <path opacity="0.3" d="M137.362 163.368L139.582 162.6H140.302V171H139.462V163.524L137.578 164.088L137.362 163.368ZM147.38 169.968C146.828 170.752 146.048 171.144 145.04 171.144C144.04 171.144 143.256 170.752 142.688 169.968C142.136 169.176 141.86 168.12 141.86 166.8C141.86 165.472 142.136 164.42 142.688 163.644C143.256 162.852 144.04 162.456 145.04 162.456C146.048 162.456 146.828 162.852 147.38 163.644C147.94 164.42 148.22 165.472 148.22 166.8C148.22 168.128 147.94 169.184 147.38 169.968ZM143.312 169.404C143.736 170.02 144.312 170.328 145.04 170.328C145.776 170.328 146.348 170.02 146.756 169.404C147.172 168.796 147.38 167.928 147.38 166.8C147.38 165.672 147.172 164.804 146.756 164.196C146.348 163.58 145.776 163.272 145.04 163.272C144.312 163.272 143.736 163.58 143.312 164.196C142.904 164.812 142.7 165.68 142.7 166.8C142.7 167.92 142.904 168.788 143.312 169.404Z" fill="#5C5B9F"/>
    <path opacity="0.3" d="M81.3184 88.228C81.3184 88.86 81.1464 89.42 80.8024 89.908L78.0544 94H77.1064L79.1704 90.928C78.9544 90.976 78.7304 91 78.4984 91C77.6664 91 76.9904 90.744 76.4704 90.232C75.9424 89.72 75.6784 89.052 75.6784 88.228C75.6784 87.42 75.9424 86.756 76.4704 86.236C77.0064 85.716 77.6824 85.456 78.4984 85.456C79.3144 85.456 79.9904 85.716 80.5264 86.236C81.0544 86.756 81.3184 87.42 81.3184 88.228ZM77.0584 86.812C76.6984 87.172 76.5184 87.644 76.5184 88.228C76.5184 88.812 76.6984 89.284 77.0584 89.644C77.4344 90.004 77.9144 90.184 78.4984 90.184C79.0904 90.184 79.5664 90.004 79.9264 89.644C80.2944 89.284 80.4784 88.812 80.4784 88.228C80.4784 87.644 80.2944 87.172 79.9264 86.812C79.5664 86.452 79.0904 86.272 78.4984 86.272C77.9144 86.272 77.4344 86.452 77.0584 86.812Z" fill="#5C5B9F"/>
    <path opacity="0.3" d="M71.6019 244.368L73.8219 243.6H74.5419V252H73.7019V244.524L71.8179 245.088L71.6019 244.368ZM75.68 244.368L77.9 243.6H78.62V252H77.78V244.524L75.896 245.088L75.68 244.368Z" fill="#5C5B9F"/>
    <path opacity="0.3" d="M165.299 141.392V140.6H170.459V141.392L167.291 149H166.415L169.583 141.392H165.299Z" fill="#5C5B9F"/>
    <path opacity="0.3" d="M90.9169 77.668C91.3489 77.868 91.6889 78.148 91.9369 78.508C92.1849 78.868 92.3089 79.272 92.3089 79.72C92.3089 80.48 92.0409 81.076 91.5049 81.508C90.9609 81.932 90.2929 82.144 89.5009 82.144C88.7089 82.144 88.0409 81.932 87.4969 81.508C86.9609 81.076 86.6929 80.48 86.6929 79.72C86.6929 79.272 86.8169 78.868 87.0649 78.508C87.3129 78.148 87.6529 77.868 88.0849 77.668C87.3409 77.244 86.9689 76.616 86.9689 75.784C86.9689 75.032 87.2169 74.456 87.7129 74.056C88.2249 73.656 88.8209 73.456 89.5009 73.456C90.1889 73.456 90.7809 73.656 91.2769 74.056C91.7809 74.456 92.0329 75.032 92.0329 75.784C92.0329 76.616 91.6609 77.244 90.9169 77.668ZM87.8089 75.784C87.8089 76.248 87.9689 76.616 88.2889 76.888C88.6169 77.16 89.0209 77.296 89.5009 77.296C89.9809 77.296 90.3809 77.16 90.7009 76.888C91.0289 76.616 91.1929 76.248 91.1929 75.784C91.1929 75.296 91.0369 74.924 90.7249 74.668C90.4129 74.404 90.0049 74.272 89.5009 74.272C88.9969 74.272 88.5889 74.404 88.2769 74.668C87.9649 74.924 87.8089 75.296 87.8089 75.784ZM88.0729 80.92C88.4249 81.192 88.9009 81.328 89.5009 81.328C90.1009 81.328 90.5769 81.192 90.9289 80.92C91.2889 80.64 91.4689 80.24 91.4689 79.72C91.4689 79.208 91.2889 78.812 90.9289 78.532C90.5609 78.252 90.0849 78.112 89.5009 78.112C88.9169 78.112 88.4409 78.252 88.0729 78.532C87.7129 78.812 87.5329 79.208 87.5329 79.72C87.5329 80.248 87.7129 80.648 88.0729 80.92Z" fill="#5C5B9F"/>
    <path opacity="0.3" d="M247.498 74.6C248.314 74.6 248.99 74.86 249.526 75.38C250.054 75.9 250.318 76.564 250.318 77.372C250.318 78.196 250.054 78.864 249.526 79.376C249.006 79.888 248.33 80.144 247.498 80.144C246.666 80.144 245.99 79.888 245.47 79.376C244.942 78.864 244.678 78.196 244.678 77.372C244.678 76.74 244.85 76.18 245.194 75.692L247.942 71.6H248.89L246.826 74.672C247.042 74.624 247.266 74.6 247.498 74.6ZM246.058 78.788C246.434 79.148 246.914 79.328 247.498 79.328C248.09 79.328 248.566 79.148 248.926 78.788C249.294 78.428 249.478 77.956 249.478 77.372C249.478 76.788 249.294 76.316 248.926 75.956C248.566 75.596 248.09 75.416 247.498 75.416C246.914 75.416 246.434 75.596 246.058 75.956C245.698 76.316 245.518 76.788 245.518 77.372C245.518 77.956 245.698 78.428 246.058 78.788Z" fill="#5C5B9F"/>
    <path opacity="0.3" d="M165.641 188.368L167.861 187.6H168.581V196H167.741V188.524L165.857 189.088L165.641 188.368Z" fill="#5C5B9F"/>
    <path opacity="0.3" d="M251.168 264H245.828V263.244L248.852 260.196C249.716 259.332 250.148 258.592 250.148 257.976C250.148 257.456 249.984 257.044 249.656 256.74C249.336 256.428 248.936 256.272 248.456 256.272C247.6 256.272 246.972 256.668 246.572 257.46L245.864 257.04C246.12 256.528 246.476 256.136 246.932 255.864C247.388 255.592 247.896 255.456 248.456 255.456C249.128 255.456 249.716 255.684 250.22 256.14C250.732 256.58 250.988 257.192 250.988 257.976C250.988 258.44 250.86 258.896 250.604 259.344C250.348 259.784 249.956 260.268 249.428 260.796L247.028 263.184H251.168V264Z" fill="#5C5B9F"/>
    <path opacity="0.3" d="M83.4886 256.368L85.7086 255.6H86.4286V264H85.5886V256.524L83.7046 257.088L83.4886 256.368ZM93.2067 264H87.8667V263.244L90.8907 260.196C91.7547 259.332 92.1867 258.592 92.1867 257.976C92.1867 257.456 92.0227 257.044 91.6947 256.74C91.3747 256.428 90.9747 256.272 90.4947 256.272C89.6387 256.272 89.0107 256.668 88.6107 257.46L87.9027 257.04C88.1587 256.528 88.5147 256.136 88.9707 255.864C89.4267 255.592 89.9347 255.456 90.4947 255.456C91.1667 255.456 91.7547 255.684 92.2587 256.14C92.7707 256.58 93.0267 257.192 93.0267 257.976C93.0267 258.44 92.8987 258.896 92.6427 259.344C92.3867 259.784 91.9947 260.268 91.4667 260.796L89.0667 263.184H93.2067V264Z" fill="#5C5B9F"/>
    <path d="M73.648 179.168C72.824 179.168 72.128 178.984 71.56 178.616C70.992 178.248 70.588 177.74 70.348 177.092L71.764 176.264C72.092 177.12 72.736 177.548 73.696 177.548C74.144 177.548 74.48 177.468 74.704 177.308C74.928 177.148 75.04 176.932 75.04 176.66C75.04 176.364 74.908 176.136 74.644 175.976C74.38 175.808 73.908 175.628 73.228 175.436C72.492 175.212 71.912 174.952 71.488 174.656C70.96 174.264 70.696 173.688 70.696 172.928C70.696 172.16 70.964 171.556 71.5 171.116C72.036 170.66 72.688 170.432 73.456 170.432C74.128 170.432 74.724 170.596 75.244 170.924C75.764 171.252 76.168 171.716 76.456 172.316L75.064 173.12C74.728 172.4 74.192 172.04 73.456 172.04C73.12 172.04 72.852 172.12 72.652 172.28C72.452 172.432 72.352 172.632 72.352 172.88C72.352 173.144 72.46 173.36 72.676 173.528C72.916 173.696 73.34 173.872 73.948 174.056L74.524 174.248C74.628 174.28 74.808 174.348 75.064 174.452C75.304 174.54 75.48 174.624 75.592 174.704C75.984 174.944 76.248 175.192 76.384 175.448C76.592 175.784 76.696 176.18 76.696 176.636C76.696 177.412 76.412 178.028 75.844 178.484C75.276 178.94 74.544 179.168 73.648 179.168ZM82.4282 173.708V173H83.9762V179H82.4282V178.292C81.9642 178.876 81.3122 179.168 80.4722 179.168C79.6722 179.168 78.9842 178.864 78.4082 178.256C77.8402 177.64 77.5562 176.888 77.5562 176C77.5562 175.12 77.8402 174.372 78.4082 173.756C78.9842 173.14 79.6722 172.832 80.4722 172.832C81.3122 172.832 81.9642 173.124 82.4282 173.708ZM79.5722 177.224C79.8842 177.536 80.2802 177.692 80.7602 177.692C81.2402 177.692 81.6362 177.536 81.9482 177.224C82.2682 176.904 82.4282 176.496 82.4282 176C82.4282 175.504 82.2682 175.1 81.9482 174.788C81.6362 174.468 81.2402 174.308 80.7602 174.308C80.2802 174.308 79.8842 174.468 79.5722 174.788C79.2602 175.1 79.1042 175.504 79.1042 176C79.1042 176.496 79.2602 176.904 79.5722 177.224Z" fill="#37366B"/>
    <path d="M294.708 250.724V245.6H296.364V254H295.104L291.504 248.864V254H289.848V245.6H291.108L294.708 250.724ZM303.683 251.636H299.159C299.359 252.388 299.923 252.764 300.851 252.764C301.443 252.764 301.891 252.564 302.195 252.164L303.443 252.884C302.851 253.74 301.979 254.168 300.827 254.168C299.835 254.168 299.039 253.868 298.439 253.268C297.839 252.668 297.539 251.912 297.539 251C297.539 250.104 297.835 249.352 298.427 248.744C299.011 248.136 299.771 247.832 300.707 247.832C301.595 247.832 302.319 248.136 302.879 248.744C303.455 249.352 303.743 250.104 303.743 251C303.743 251.168 303.723 251.38 303.683 251.636ZM299.135 250.436H302.195C302.107 250.044 301.927 249.744 301.655 249.536C301.391 249.328 301.075 249.224 300.707 249.224C300.291 249.224 299.947 249.332 299.675 249.548C299.403 249.756 299.223 250.052 299.135 250.436ZM311.231 249.68L314.459 254H312.551L309.551 250.064V254H307.895V245.6H309.551V249.308L312.431 245.6H314.339L311.231 249.68ZM320.499 251.636H315.975C316.175 252.388 316.739 252.764 317.667 252.764C318.259 252.764 318.707 252.564 319.011 252.164L320.259 252.884C319.667 253.74 318.795 254.168 317.643 254.168C316.651 254.168 315.855 253.868 315.255 253.268C314.655 252.668 314.355 251.912 314.355 251C314.355 250.104 314.651 249.352 315.243 248.744C315.827 248.136 316.587 247.832 317.523 247.832C318.411 247.832 319.135 248.136 319.695 248.744C320.271 249.352 320.559 250.104 320.559 251C320.559 251.168 320.539 251.38 320.499 251.636ZM315.951 250.436H319.011C318.923 250.044 318.743 249.744 318.471 249.536C318.207 249.328 317.891 249.224 317.523 249.224C317.107 249.224 316.763 249.332 316.491 249.548C316.219 249.756 316.039 250.052 315.951 250.436ZM302.894 269H300.842L298.022 260.6H299.822L301.874 267.056L303.914 260.6H305.726L302.894 269ZM311.581 266.636H307.057C307.257 267.388 307.821 267.764 308.749 267.764C309.341 267.764 309.789 267.564 310.093 267.164L311.341 267.884C310.749 268.74 309.877 269.168 308.725 269.168C307.733 269.168 306.937 268.868 306.337 268.268C305.737 267.668 305.437 266.912 305.437 266C305.437 265.104 305.733 264.352 306.325 263.744C306.909 263.136 307.669 262.832 308.605 262.832C309.493 262.832 310.217 263.136 310.777 263.744C311.353 264.352 311.641 265.104 311.641 266C311.641 266.168 311.621 266.38 311.581 266.636ZM307.033 265.436H310.093C310.005 265.044 309.825 264.744 309.553 264.536C309.289 264.328 308.973 264.224 308.605 264.224C308.189 264.224 307.845 264.332 307.573 264.548C307.301 264.756 307.121 265.052 307.033 265.436Z" fill="#37366B"/>
    <path d="M87.296 307.6H89V316H87.356V310.552L84.992 314.452H84.8L82.436 310.564V316H80.78V307.6H82.484L84.896 311.572L87.296 307.6ZM95.6052 315.256C94.9972 315.864 94.2452 316.168 93.3492 316.168C92.4532 316.168 91.7012 315.864 91.0932 315.256C90.4852 314.648 90.1812 313.896 90.1812 313C90.1812 312.112 90.4852 311.364 91.0932 310.756C91.7092 310.14 92.4612 309.832 93.3492 309.832C94.2372 309.832 94.9892 310.14 95.6052 310.756C96.2212 311.372 96.5292 312.12 96.5292 313C96.5292 313.888 96.2212 314.64 95.6052 315.256ZM92.1852 314.188C92.4972 314.5 92.8852 314.656 93.3492 314.656C93.8132 314.656 94.2012 314.5 94.5132 314.188C94.8252 313.876 94.9812 313.48 94.9812 313C94.9812 312.52 94.8252 312.124 94.5132 311.812C94.2012 311.5 93.8132 311.344 93.3492 311.344C92.8852 311.344 92.4972 311.5 92.1852 311.812C91.8812 312.132 91.7292 312.528 91.7292 313C91.7292 313.472 91.8812 313.868 92.1852 314.188Z" fill="#37366B"/>
    <path d="M248.176 316H246.388L244.696 313.084H243.436V316H241.78V307.6H245.14C245.916 307.6 246.576 307.872 247.12 308.416C247.664 308.96 247.936 309.616 247.936 310.384C247.936 310.904 247.788 311.388 247.492 311.836C247.196 312.276 246.804 312.608 246.316 312.832L248.176 316ZM245.14 309.148H243.436V311.632H245.14C245.452 311.632 245.72 311.512 245.944 311.272C246.168 311.024 246.28 310.728 246.28 310.384C246.28 310.04 246.168 309.748 245.944 309.508C245.72 309.268 245.452 309.148 245.14 309.148ZM253.334 310.708V310H254.882V316H253.334V315.292C252.87 315.876 252.218 316.168 251.378 316.168C250.578 316.168 249.89 315.864 249.314 315.256C248.746 314.64 248.462 313.888 248.462 313C248.462 312.12 248.746 311.372 249.314 310.756C249.89 310.14 250.578 309.832 251.378 309.832C252.218 309.832 252.87 310.124 253.334 310.708ZM250.478 314.224C250.79 314.536 251.186 314.692 251.666 314.692C252.146 314.692 252.542 314.536 252.854 314.224C253.174 313.904 253.334 313.496 253.334 313C253.334 312.504 253.174 312.1 252.854 311.788C252.542 311.468 252.146 311.308 251.666 311.308C251.186 311.308 250.79 311.468 250.478 311.788C250.166 312.1 250.01 312.504 250.01 313C250.01 313.496 250.166 313.904 250.478 314.224Z" fill="#37366B"/>
    <path d="M75.116 53.68L78.344 58H76.436L73.436 54.064V58H71.78V49.6H73.436V53.308L76.316 49.6H78.224L75.116 53.68ZM84.3838 55.636H79.8598C80.0598 56.388 80.6238 56.764 81.5518 56.764C82.1438 56.764 82.5918 56.564 82.8958 56.164L84.1438 56.884C83.5518 57.74 82.6798 58.168 81.5278 58.168C80.5358 58.168 79.7398 57.868 79.1398 57.268C78.5398 56.668 78.2397 55.912 78.2397 55C78.2397 54.104 78.5358 53.352 79.1278 52.744C79.7118 52.136 80.4718 51.832 81.4078 51.832C82.2958 51.832 83.0198 52.136 83.5798 52.744C84.1558 53.352 84.4438 54.104 84.4438 55C84.4438 55.168 84.4238 55.38 84.3838 55.636ZM79.8358 54.436H82.8958C82.8078 54.044 82.6278 53.744 82.3558 53.536C82.0918 53.328 81.7758 53.224 81.4078 53.224C80.9918 53.224 80.6478 53.332 80.3758 53.548C80.1038 53.756 79.9238 54.052 79.8358 54.436Z" fill="#37366B"/>
    <path d="M236.296 41.6H238V50H236.356V44.552L233.992 48.452H233.8L231.436 44.564V50H229.78V41.6H231.484L233.896 45.572L236.296 41.6ZM245.325 47.636H240.801C241.001 48.388 241.565 48.764 242.493 48.764C243.085 48.764 243.533 48.564 243.837 48.164L245.085 48.884C244.493 49.74 243.621 50.168 242.469 50.168C241.477 50.168 240.681 49.868 240.081 49.268C239.481 48.668 239.181 47.912 239.181 47C239.181 46.104 239.477 45.352 240.069 44.744C240.653 44.136 241.413 43.832 242.349 43.832C243.237 43.832 243.961 44.136 244.521 44.744C245.097 45.352 245.385 46.104 245.385 47C245.385 47.168 245.365 47.38 245.325 47.636ZM240.777 46.436H243.837C243.749 46.044 243.569 45.744 243.297 45.536C243.033 45.328 242.717 45.224 242.349 45.224C241.933 45.224 241.589 45.332 241.317 45.548C241.045 45.756 240.865 46.052 240.777 46.436Z" fill="#37366B"/>
    <path d="M258.296 41.6H260V50H258.356V44.552L255.992 48.452H255.8L253.436 44.564V50H251.78V41.6H253.484L255.896 45.572L258.296 41.6ZM266.053 44.708V44H267.601V50H266.053V49.292C265.589 49.876 264.937 50.168 264.097 50.168C263.297 50.168 262.609 49.864 262.033 49.256C261.465 48.64 261.181 47.888 261.181 47C261.181 46.12 261.465 45.372 262.033 44.756C262.609 44.14 263.297 43.832 264.097 43.832C264.937 43.832 265.589 44.124 266.053 44.708ZM263.197 48.224C263.509 48.536 263.905 48.692 264.385 48.692C264.865 48.692 265.261 48.536 265.573 48.224C265.893 47.904 266.053 47.496 266.053 47C266.053 46.504 265.893 46.1 265.573 45.788C265.261 45.468 264.865 45.308 264.385 45.308C263.905 45.308 263.509 45.468 263.197 45.788C262.885 46.1 262.729 46.504 262.729 47C262.729 47.496 262.885 47.904 263.197 48.224Z" fill="#37366B"/>
    <path d="M163.648 98.168C162.824 98.168 162.128 97.984 161.56 97.616C160.992 97.248 160.588 96.74 160.348 96.092L161.764 95.264C162.092 96.12 162.736 96.548 163.696 96.548C164.144 96.548 164.48 96.468 164.704 96.308C164.928 96.148 165.04 95.932 165.04 95.66C165.04 95.364 164.908 95.136 164.644 94.976C164.38 94.808 163.908 94.628 163.228 94.436C162.492 94.212 161.912 93.952 161.488 93.656C160.96 93.264 160.696 92.688 160.696 91.928C160.696 91.16 160.964 90.556 161.5 90.116C162.036 89.66 162.688 89.432 163.456 89.432C164.128 89.432 164.724 89.596 165.244 89.924C165.764 90.252 166.168 90.716 166.456 91.316L165.064 92.12C164.728 91.4 164.192 91.04 163.456 91.04C163.12 91.04 162.852 91.12 162.652 91.28C162.452 91.432 162.352 91.632 162.352 91.88C162.352 92.144 162.46 92.36 162.676 92.528C162.916 92.696 163.34 92.872 163.948 93.056L164.524 93.248C164.628 93.28 164.808 93.348 165.064 93.452C165.304 93.54 165.48 93.624 165.592 93.704C165.984 93.944 166.248 94.192 166.384 94.448C166.592 94.784 166.696 95.18 166.696 95.636C166.696 96.412 166.412 97.028 165.844 97.484C165.276 97.94 164.544 98.168 163.648 98.168ZM171.664 95.24V92H173.212V98H171.664V97.328C171.296 97.888 170.7 98.168 169.876 98.168C169.22 98.168 168.676 97.948 168.244 97.508C167.82 97.06 167.608 96.452 167.608 95.684V92H169.156V95.492C169.156 95.884 169.26 96.188 169.468 96.404C169.684 96.62 169.976 96.728 170.344 96.728C170.752 96.728 171.072 96.604 171.304 96.356C171.544 96.1 171.664 95.728 171.664 95.24Z" fill="#37366B"/>
    <path d="M94.908 58H92.856L90.036 49.6H91.836L93.888 56.056L95.928 49.6H97.74L94.908 58ZM103.595 55.636H99.0707C99.2707 56.388 99.8347 56.764 100.763 56.764C101.355 56.764 101.803 56.564 102.107 56.164L103.355 56.884C102.763 57.74 101.891 58.168 100.739 58.168C99.7467 58.168 98.9507 57.868 98.3507 57.268C97.7507 56.668 97.4507 55.912 97.4507 55C97.4507 54.104 97.7467 53.352 98.3387 52.744C98.9227 52.136 99.6827 51.832 100.619 51.832C101.507 51.832 102.231 52.136 102.791 52.744C103.367 53.352 103.655 54.104 103.655 55C103.655 55.168 103.635 55.38 103.595 55.636ZM99.0467 54.436H102.107C102.019 54.044 101.839 53.744 101.567 53.536C101.303 53.328 100.987 53.224 100.619 53.224C100.203 53.224 99.8587 53.332 99.5867 53.548C99.3147 53.756 99.1347 54.052 99.0467 54.436Z" fill="#37366B"/>
    <path d="M92.168 179.168C90.848 179.168 89.924 178.636 89.396 177.572L90.824 176.756C91.088 177.284 91.536 177.548 92.168 177.548C92.6 177.548 92.924 177.448 93.14 177.248C93.364 177.04 93.476 176.752 93.476 176.384V170.6H95.12V176.384C95.12 177.264 94.844 177.948 94.292 178.436C93.748 178.924 93.04 179.168 92.168 179.168ZM100.5 176.24V173H102.048V179H100.5V178.328C100.132 178.888 99.536 179.168 98.712 179.168C98.056 179.168 97.512 178.948 97.08 178.508C96.656 178.06 96.444 177.452 96.444 176.684V173H97.992V176.492C97.992 176.884 98.096 177.188 98.304 177.404C98.52 177.62 98.812 177.728 99.18 177.728C99.588 177.728 99.908 177.604 100.14 177.356C100.38 177.1 100.5 176.728 100.5 176.24Z" fill="#37366B"/>
    <defs>
        <filter id="filter0_ddii_1386_38138" x="0" y="0" width="342" height="342" filterUnits="userSpaceOnUse" color-interpolation-filters="sRGB">
            <feFlood flood-opacity="0" result="BackgroundImageFix"/>
            <feColorMatrix in="SourceAlpha" type="matrix" values="0 0 0 0 0 0 0 0 0 0 0 0 0 0 0 0 0 0 127 0" result="hardAlpha"/>
            <feColorMatrix type="matrix" values="0 0 0 0 0.682353 0 0 0 0 0.682353 0 0 0 0 0.752941 0 0 0 0.3 0"/>
            <feBlend mode="normal" in2="BackgroundImageFix" result="effect1_dropShadow_1386_38138"/>
            <feColorMatrix in="SourceAlpha" type="matrix" values="0 0 0 0 0 0 0 0 0 0 0 0 0 0 0 0 0 0 127 0" result="hardAlpha"/>
            <feColorMatrix type="matrix" values="0 0 0 0 1 0 0 0 0 1 0 0 0 0 1 0 0 0 1 0"/>
            <feBlend mode="normal" in2="effect1_dropShadow_1386_38138" result="effect2_dropShadow_1386_38138"/>
            <feBlend mode="normal" in="SourceGraphic" in2="effect2_dropShadow_1386_38138" result="shape"/>
            <feColorMatrix in="SourceAlpha" type="matrix" values="0 0 0 0 0 0 0 0 0 0 0 0 0 0 0 0 0 0 127 0" result="hardAlpha"/>
            <feComposite in2="hardAlpha" operator="arithmetic" k2="-1" k3="1"/>
            <feColorMatrix type="matrix" values="0 0 0 0 1 0 0 0 0 1 0 0 0 0 1 0 0 0 1 0"/>
            <feBlend mode="normal" in2="shape" result="effect3_innerShadow_1386_38138"/>
            <feColorMatrix in="SourceAlpha" type="matrix" values="0 0 0 0 0 0 0 0 0 0 0 0 0 0 0 0 0 0 127 0" result="hardAlpha"/>
            <feOffset dx="-2" dy="-2"/>
            <feComposite in2="hardAlpha" operator="arithmetic" k2="-1" k3="1"/>
            <feColorMatrix type="matrix" values="0 0 0 0 0 0 0 0 0 0 0 0 0 0 0 0 0 0 0.1 0"/>
            <feBlend mode="normal" in2="effect3_innerShadow_1386_38138" result="effect4_innerShadow_1386_38138"/>
        </filter>
        <radialGradient id="paint0_radial_1386_38138" cx="0" cy="0" r="1" gradientUnits="userSpaceOnUse" gradientTransform="translate(169.5 169.5) rotate(90) scale(157.5)">
            <stop offset="0.364583" stop-color="white"/>
            <stop offset="1" stop-color="#D6D7FD"/>
        </radialGradient>
    </defs>
</svg>
