<svg width="24" height="24" viewBox="0 0 24 24" fill="none" xmlns="http://www.w3.org/2000/svg">
    <path d="M21 20.0001C21 20.2653 20.8946 20.5197 20.7071 20.7072C20.5196 20.8947 20.2652 21.0001 20 21.0001H4C3.73478 21.0001 3.48043 20.8947 3.29289 20.7072C3.10536 20.5197 3 20.2653 3 20.0001V9.49009C2.99989 9.3377 3.03462 9.18731 3.10152 9.05039C3.16841 8.91347 3.26572 8.79365 3.386 8.70009L11.386 2.47809C11.5615 2.34153 11.7776 2.2674 12 2.2674C12.2224 2.2674 12.4385 2.34153 12.614 2.47809L20.614 8.70009C20.7343 8.79365 20.8316 8.91347 20.8985 9.05039C20.9654 9.18731 21.0001 9.3377 21 9.49009V20.0001V20.0001ZM19 19.0001V9.97809L12 4.53409L5 9.97809V19.0001H19Z" fill="#9C9EA8"/>
</svg>
