<svg width="26" height="28" viewBox="0 0 26 28" fill="none" xmlns="http://www.w3.org/2000/svg">
    <path d="M4.00084 18.6934C4.29292 19.4414 4.58499 20.1894 5.28242 20.7369C6.46009 21.7065 7.7632 22.4589 9.03729 22.76C10.42 23.1237 11.7109 23.1448 12.956 22.9945C15.4461 22.694 17.4729 21.6914 19.0025 20.5467C20.5322 19.4019 21.2849 18.0983 21.678 17.1665C22.0712 16.2347 22.1049 15.6747 22.1049 15.6747C22.1049 15.6747 21.9626 16.172 21.4609 17.0411C20.9591 17.9102 20.052 18.9798 18.5391 19.8446C17.1349 20.772 15.125 21.4947 12.9317 21.532C11.8579 21.6363 10.6297 21.5066 9.52689 21.1596C8.42412 20.8126 7.27547 20.2943 6.31499 19.4501C5.50897 18.8398 5.18787 17.6405 5.25528 16.5206C5.32268 15.4007 5.82447 14.5316 6.5893 13.9593C6.99465 13.7587 7.50858 13.6209 7.9598 13.5917C8.23971 13.6085 8.41101 13.5626 8.69092 13.5793C8.97083 13.5961 9.18802 13.7214 9.35933 13.6755C10.2449 13.8971 10.7083 14.5992 11.0004 15.3472C11.2925 16.0952 11.1333 16.8725 10.9283 17.4783C10.7233 18.0842 10.1925 18.502 9.84986 18.5939C9.33592 18.7317 8.94742 18.6523 8.73023 18.5269C8.51305 18.4015 8.40447 18.3388 8.40447 18.3388C8.40447 18.3388 8.51305 18.4015 8.73023 18.5269C8.94742 18.6523 9.27321 18.8404 9.89574 18.7652C10.4097 18.6274 11.0491 18.2723 11.4254 17.6205C11.8017 16.9687 12.0236 16.0828 11.857 15.1175C11.7194 14.6035 11.5817 14.0895 11.2728 13.6215C10.9639 13.1534 10.4209 12.8399 9.87797 12.5264C9.55219 12.3384 9.27228 12.3216 8.99237 12.3049C8.71247 12.2881 8.32396 12.2086 8.04405 12.1919C7.37565 12.0957 6.69039 12.2794 6.051 12.6345C5.41162 12.9896 4.8181 13.5161 4.44177 14.1679C4.06544 14.8197 3.79772 15.5342 3.80989 16.2655C3.69661 17.2141 3.70877 17.9453 4.00084 18.6934Z" fill="#99DAEA"/>
    <path d="M7.84566 8.02124C9.24987 7.09377 11.2598 6.37114 13.5159 6.2252C14.5896 6.12089 15.8179 6.2506 16.9206 6.59758C18.0234 6.94457 19.172 7.46288 20.1325 8.30712C20.9385 8.91732 21.2596 10.1167 21.1922 11.2365C21.1248 12.3564 20.6231 13.2255 19.8582 13.7979C19.4529 13.9984 19.0475 14.1989 18.4877 14.1654C18.2078 14.1487 18.0365 14.1946 17.7566 14.1778C17.4767 14.1611 17.2595 14.0357 17.0882 14.0817C16.2026 13.8601 15.7392 13.158 15.4471 12.4099C15.1551 11.6619 15.3142 10.8847 15.5192 10.2788C15.7242 9.67294 16.255 9.25514 16.5977 9.16325C17.003 8.96273 17.5001 9.10488 17.7173 9.23027C17.9345 9.35566 18.043 9.41836 18.043 9.41836C18.043 9.41836 17.9345 9.35566 17.7173 9.23027C17.5001 9.10488 17.1116 9.02544 16.5518 8.99193C16.0378 9.12975 15.3984 9.48484 15.0221 10.1367C14.6458 10.7885 14.4239 11.6744 14.5906 12.6397C14.7282 13.1537 14.8658 13.6676 15.1747 14.1357C15.4836 14.6038 16.0266 14.9172 16.5696 15.2307C16.8953 15.4188 17.1752 15.4356 17.4551 15.4523C17.7351 15.4691 18.1235 15.5485 18.4034 15.5653C19.0719 15.6615 19.7571 15.4777 20.3965 15.1226C21.0359 14.7675 21.6294 14.2411 22.0057 13.5893C22.3821 12.9374 22.6498 12.2229 22.6376 11.4917C22.6255 10.7604 22.6133 10.0291 22.3839 9.17245C22.0919 8.42442 21.6285 7.72231 21.1024 7.12886C19.9247 6.15924 18.5589 5.51553 17.2848 5.21448C15.9021 4.85074 14.6112 4.82967 13.3661 4.97992C10.8759 5.28044 8.84921 6.28303 7.42815 7.49047C6.00708 8.69791 5.14581 9.93887 4.86122 10.9334C4.46804 11.8652 4.43435 12.4251 4.43435 12.4251C4.43435 12.4251 4.57663 11.9278 5.07841 11.0587C5.47159 10.127 6.37872 9.05735 7.84566 8.02124Z" fill="#99DAEA"/>
</svg>
